  0
SECTION
  2
HEADER
  9
$ANGBASE
  50
0.0
  9
$ANGDIR
  70
1
  9
$MEASUREMENT
  70
1
  0
ENDSEC
  0
SECTION
  2
TABLES
  0
TABLE
  2
LTYPE
  70
4
  0
LTYPE
  5
40F
  2
CONTINUOUS
  70
0
  3
Solid line
  72
65
  73
0
  40
0.0
  0
LTYPE
  5
410
  2
DASHDOT
 70
0
  3
Dash Dot ____ _ ____ _
 72
65
 73
4
 40
2.0
 49
1.25
 49
-0.25
 49
0.25
 49
-0.25
  0
LTYPE
  5
411
  2
DASHED
 70
0
  3
Dashed __ __ __ __ __
 72
65
 73
2
 40
0.75
 49
0.5
 49
-0.25
  0
LTYPE
  5
43B
  2
DOTTED
 70
0
  3
Dotted .  .  .  .
 72
65
 73
2
 40
0.2
 49
0.0
 49
-0.2
  0
ENDTAB
  0
TABLE
  2
STYLE
  70
4
  0
STYLE
  2
KICAD
  70
0
  40
0
  41
1
  42
1
  50
0
  71
0
  3
isocp.shx
  0
STYLE
  2
KICADB
  70
0
  40
0
  41
1
  42
1
  50
0
  71
0
  3
isocp.shx
  0
STYLE
  2
KICADI
  70
0
  40
0
  41
1
  42
1
  50
15
  71
0
  3
isocp.shx
  0
STYLE
  2
KICADBI
  70
0
  40
0
  41
1
  42
1
  50
15
  71
0
  3
isocp.shx
  0
ENDTAB
  0
TABLE
  2
LAYER
  70
1
  0
LAYER
  2
BLACK
  70
0
  62
7
  6
CONTINUOUS
  0
ENDTAB
  0
ENDSEC
  0
SECTION
  2
ENTITIES
0
LINE
8
BLACK
6
CONTINUOUS
10
158.2400329999999826
20
-95.5041499999999957
11
158.3211389999999881
21
-95.5583429999999936
0
LINE
8
BLACK
6
CONTINUOUS
10
158.3211389999999881
20
-95.5583429999999936
11
158.375331999999986
21
-95.639448999999999
0
LINE
8
BLACK
6
CONTINUOUS
10
158.375331999999986
20
-95.639448999999999
11
158.394362000000001
21
-95.7351199999999949
0
LINE
8
BLACK
6
CONTINUOUS
10
158.394362000000001
20
-95.7351199999999949
11
158.394362000000001
21
-96.535119999999992
0
LINE
8
BLACK
6
CONTINUOUS
10
158.394362000000001
20
-96.535119999999992
11
158.375331999999986
21
-96.6307910000000021
0
LINE
8
BLACK
6
CONTINUOUS
10
158.375331999999986
20
-96.6307910000000021
11
158.3211389999999881
21
-96.7118969999999933
0
LINE
8
BLACK
6
CONTINUOUS
10
158.3211389999999881
20
-96.7118969999999933
11
158.2400329999999826
21
-96.7660899999999913
0
LINE
8
BLACK
6
CONTINUOUS
10
158.2400329999999826
20
-96.7660899999999913
11
158.144362000000001
21
-96.785119999999992
0
LINE
8
BLACK
6
CONTINUOUS
10
158.144362000000001
20
-96.785119999999992
11
156.894362000000001
21
-96.785119999999992
0
LINE
8
BLACK
6
CONTINUOUS
10
156.894362000000001
20
-96.785119999999992
11
156.8898429999999848
21
-96.7842210000000023
0
LINE
8
BLACK
6
CONTINUOUS
10
156.8898429999999848
20
-96.7842210000000023
11
156.8882849999999962
21
-96.7841069999999917
0
LINE
8
BLACK
6
CONTINUOUS
10
156.8882849999999962
20
-96.7841069999999917
11
156.0041389999999808
21
-96.6367489999999947
0
LINE
8
BLACK
6
CONTINUOUS
10
156.0041389999999808
20
-96.6367489999999947
11
156.0015279999999791
21
-96.6351200000000006
0
LINE
8
BLACK
6
CONTINUOUS
10
156.0015279999999791
20
-96.6351200000000006
11
154.3119869999999878
21
-96.6351200000000006
0
LINE
8
BLACK
6
CONTINUOUS
10
154.3119869999999878
20
-96.6351200000000006
11
153.0535529999999937
21
-97.8935529999999972
0
LINE
8
BLACK
6
CONTINUOUS
10
153.0535529999999937
20
-97.8935529999999972
11
153.0043959999999856
21
-97.9366610000000009
0
LINE
8
BLACK
6
CONTINUOUS
10
153.0043959999999856
20
-97.9366610000000009
11
153.0043809999999951
21
-97.9366769999999889
0
LINE
8
BLACK
6
CONTINUOUS
10
153.0043809999999951
20
-97.9366769999999889
11
152.8913419999999803
21
-98.0019399999999905
0
LINE
8
BLACK
6
CONTINUOUS
10
152.8913419999999803
20
-98.0019399999999905
11
152.7652630000000045
21
-98.0357229999999902
0
LINE
8
BLACK
6
CONTINUOUS
10
152.7652630000000045
20
-98.0357229999999902
11
152.7652479999999855
21
-98.0357229999999902
0
LINE
8
BLACK
6
CONTINUOUS
10
152.7652479999999855
20
-98.0357229999999902
11
152.6999999999999886
21
-98.039999999999992
0
LINE
8
BLACK
6
CONTINUOUS
10
152.6999999999999886
20
-98.039999999999992
11
145.0746929999999963
21
-98.039999999999992
0
LINE
8
BLACK
6
CONTINUOUS
10
145.0746929999999963
20
-98.039999999999992
11
145.0705130000000054
21
-98.0424939999999907
0
LINE
8
BLACK
6
CONTINUOUS
10
145.0705130000000054
20
-98.0424939999999907
11
143.5207269999999937
21
-98.5054289999999924
0
LINE
8
BLACK
6
CONTINUOUS
10
143.5207269999999937
20
-98.5054289999999924
11
143.4209519999999998
21
-98.5562669999999912
0
LINE
8
BLACK
6
CONTINUOUS
10
143.4209519999999998
20
-98.5562669999999912
11
143.2567899999999952
21
-98.6096069999999969
0
LINE
8
BLACK
6
CONTINUOUS
10
143.2567899999999952
20
-98.6096069999999969
11
143.0863049999999816
21
-98.6366089999999929
0
LINE
8
BLACK
6
CONTINUOUS
10
143.0863049999999816
20
-98.6366089999999929
11
142.9136949999999899
21
-98.6366089999999929
0
LINE
8
BLACK
6
CONTINUOUS
10
142.9136949999999899
20
-98.6366089999999929
11
142.7432100000000048
21
-98.6096069999999969
0
LINE
8
BLACK
6
CONTINUOUS
10
142.7432100000000048
20
-98.6096069999999969
11
142.5790480000000002
21
-98.5562669999999912
0
LINE
8
BLACK
6
CONTINUOUS
10
142.5790480000000002
20
-98.5562669999999912
11
142.4252520000000004
21
-98.4779039999999952
0
LINE
8
BLACK
6
CONTINUOUS
10
142.4252520000000004
20
-98.4779039999999952
11
142.2856069999999988
21
-98.3764469999999989
0
LINE
8
BLACK
6
CONTINUOUS
10
142.2856069999999988
20
-98.3764469999999989
11
142.1635530000000074
21
-98.2543929999999932
0
LINE
8
BLACK
6
CONTINUOUS
10
142.1635530000000074
20
-98.2543929999999932
11
142.0620959999999968
21
-98.1147479999999916
0
LINE
8
BLACK
6
CONTINUOUS
10
142.0620959999999968
20
-98.1147479999999916
11
141.9837330000000009
21
-97.9609519999999918
0
LINE
8
BLACK
6
CONTINUOUS
10
141.9837330000000009
20
-97.9609519999999918
11
141.9303929999999809
21
-97.7967900000000014
0
LINE
8
BLACK
6
CONTINUOUS
10
141.9303929999999809
20
-97.7967900000000014
11
141.9033909999999992
21
-97.6263050000000021
0
LINE
8
BLACK
6
CONTINUOUS
10
141.9033909999999992
20
-97.6263050000000021
11
141.9033909999999992
21
-97.4536949999999962
0
LINE
8
BLACK
6
CONTINUOUS
10
141.9033909999999992
20
-97.4536949999999962
11
141.9303929999999809
21
-97.2832099999999969
0
LINE
8
BLACK
6
CONTINUOUS
10
141.9303929999999809
20
-97.2832099999999969
11
141.9837330000000009
21
-97.1190479999999923
0
LINE
8
BLACK
6
CONTINUOUS
10
141.9837330000000009
20
-97.1190479999999923
11
142.0620959999999968
21
-96.9652519999999924
0
LINE
8
BLACK
6
CONTINUOUS
10
142.0620959999999968
20
-96.9652519999999924
11
142.1635530000000074
21
-96.8256069999999909
0
LINE
8
BLACK
6
CONTINUOUS
10
142.1635530000000074
20
-96.8256069999999909
11
142.2856069999999988
21
-96.7035529999999994
0
LINE
8
BLACK
6
CONTINUOUS
10
142.2856069999999988
20
-96.7035529999999994
11
142.4252520000000004
21
-96.6020959999999889
0
LINE
8
BLACK
6
CONTINUOUS
10
142.4252520000000004
20
-96.6020959999999889
11
142.5790480000000002
21
-96.5237329999999929
0
LINE
8
BLACK
6
CONTINUOUS
10
142.5790480000000002
20
-96.5237329999999929
11
142.7432100000000048
21
-96.4703930000000014
0
LINE
8
BLACK
6
CONTINUOUS
10
142.7432100000000048
20
-96.4703930000000014
11
142.9136949999999899
21
-96.4433909999999912
0
LINE
8
BLACK
6
CONTINUOUS
10
142.9136949999999899
20
-96.4433909999999912
11
143.0863049999999816
21
-96.4433909999999912
0
LINE
8
BLACK
6
CONTINUOUS
10
143.0863049999999816
20
-96.4433909999999912
11
143.2567899999999952
21
-96.4703930000000014
0
LINE
8
BLACK
6
CONTINUOUS
10
143.2567899999999952
20
-96.4703930000000014
11
143.4209519999999998
21
-96.5237329999999929
0
LINE
8
BLACK
6
CONTINUOUS
10
143.4209519999999998
20
-96.5237329999999929
11
143.5207249999999988
21
-96.5745689999999968
0
LINE
8
BLACK
6
CONTINUOUS
10
143.5207249999999988
20
-96.5745689999999968
11
145.0705130000000054
21
-97.0375049999999959
0
LINE
8
BLACK
6
CONTINUOUS
10
145.0705130000000054
20
-97.0375049999999959
11
145.0735789999999952
21
-97.039999999999992
0
LINE
8
BLACK
6
CONTINUOUS
10
145.0735789999999952
20
-97.039999999999992
11
152.4928940000000068
21
-97.039999999999992
0
LINE
8
BLACK
6
CONTINUOUS
10
152.4928940000000068
20
-97.039999999999992
11
153.7513260000000059
21
-95.7815669999999955
0
LINE
8
BLACK
6
CONTINUOUS
10
153.7513260000000059
20
-95.7815669999999955
11
153.8004899999999964
21
-95.7384509999999977
0
LINE
8
BLACK
6
CONTINUOUS
10
153.8004899999999964
20
-95.7384509999999977
11
153.8004990000000021
21
-95.7384429999999895
0
LINE
8
BLACK
6
CONTINUOUS
10
153.8004990000000021
20
-95.7384429999999895
11
153.9135379999999884
21
-95.6731800000000021
0
LINE
8
BLACK
6
CONTINUOUS
10
153.9135379999999884
20
-95.6731800000000021
11
154.0396169999999927
21
-95.6393970000000024
0
LINE
8
BLACK
6
CONTINUOUS
10
154.0396169999999927
20
-95.6393970000000024
11
154.0396319999999832
21
-95.6393970000000024
0
LINE
8
BLACK
6
CONTINUOUS
10
154.0396319999999832
20
-95.6393970000000024
11
154.1048799999999801
21
-95.6351200000000006
0
LINE
8
BLACK
6
CONTINUOUS
10
154.1048799999999801
20
-95.6351200000000006
11
156.0009709999999927
21
-95.6351200000000006
0
LINE
8
BLACK
6
CONTINUOUS
10
156.0009709999999927
20
-95.6351200000000006
11
156.0041369999999858
21
-95.6334899999999948
0
LINE
8
BLACK
6
CONTINUOUS
10
156.0041369999999858
20
-95.6334899999999948
11
156.8882869999999912
21
-95.4861319999999978
0
LINE
8
BLACK
6
CONTINUOUS
10
156.8882869999999912
20
-95.4861319999999978
11
156.8887430000000052
21
-95.4862370000000027
0
LINE
8
BLACK
6
CONTINUOUS
10
156.8887430000000052
20
-95.4862370000000027
11
156.894362000000001
21
-95.4851199999999949
0
LINE
8
BLACK
6
CONTINUOUS
10
156.894362000000001
20
-95.4851199999999949
11
158.144362000000001
21
-95.4851199999999949
0
LINE
8
BLACK
6
CONTINUOUS
10
158.144362000000001
20
-95.4851199999999949
11
158.2400329999999826
21
-95.5041499999999957
0
LINE
8
BLACK
6
CONTINUOUS
10
144.0999999999999943
20
-94.0032559999999933
11
144.1024960000000021
21
-94.0023609999999934
0
LINE
8
BLACK
6
CONTINUOUS
10
144.1024960000000021
20
-94.0023609999999934
11
144.1071660000000065
21
-94.0035829999999919
0
LINE
8
BLACK
6
CONTINUOUS
10
144.1071660000000065
20
-94.0035829999999919
11
145.093531999999982
21
-94.4967659999999938
0
LINE
8
BLACK
6
CONTINUOUS
10
145.093531999999982
20
-94.4967659999999938
11
145.0963370000000054
21
-94.5
0
LINE
8
BLACK
6
CONTINUOUS
10
145.0963370000000054
20
-94.5
11
145.7429779999999937
21
-94.5
0
LINE
8
BLACK
6
CONTINUOUS
10
145.7429779999999937
20
-94.5
11
145.804000000000002
21
-94.4959999999999951
0
LINE
8
BLACK
6
CONTINUOUS
10
145.804000000000002
20
-94.4959999999999951
11
146.8119999999999834
21
-94.4959999999999951
0
LINE
8
BLACK
6
CONTINUOUS
10
146.8119999999999834
20
-94.4959999999999951
11
146.8772479999999803
21
-94.500276999999997
0
LINE
8
BLACK
6
CONTINUOUS
10
146.8772479999999803
20
-94.500276999999997
11
146.8772629999999992
21
-94.500276999999997
0
LINE
8
BLACK
6
CONTINUOUS
10
146.8772629999999992
20
-94.500276999999997
11
147.0033420000000035
21
-94.5340599999999966
0
LINE
8
BLACK
6
CONTINUOUS
10
147.0033420000000035
20
-94.5340599999999966
11
147.1163809999999899
21
-94.5993229999999983
0
LINE
8
BLACK
6
CONTINUOUS
10
147.1163809999999899
20
-94.5993229999999983
11
147.1163959999999804
21
-94.5993379999999888
0
LINE
8
BLACK
6
CONTINUOUS
10
147.1163959999999804
20
-94.5993379999999888
11
147.1655529999999885
21
-94.64244699999999
0
LINE
8
BLACK
6
CONTINUOUS
10
147.1655529999999885
20
-94.64244699999999
11
148.0351059999999848
21
-95.5120000000000005
0
LINE
8
BLACK
6
CONTINUOUS
10
148.0351059999999848
20
-95.5120000000000005
11
151.195196999999979
21
-95.5120000000000005
0
LINE
8
BLACK
6
CONTINUOUS
10
151.195196999999979
20
-95.5120000000000005
11
151.196109000000007
21
-95.509026999999989
0
LINE
8
BLACK
6
CONTINUOUS
10
151.196109000000007
20
-95.509026999999989
11
151.7867359999999906
21
-94.6373789999999957
0
LINE
8
BLACK
6
CONTINUOUS
10
151.7867359999999906
20
-94.6373789999999957
11
151.7942119999999875
21
-94.6324539999999956
0
LINE
8
BLACK
6
CONTINUOUS
10
151.7942119999999875
20
-94.6324539999999956
11
151.7949419999999918
21
-94.632600999999994
0
LINE
8
BLACK
6
CONTINUOUS
10
151.7949419999999918
20
-94.632600999999994
11
151.8429409999999962
21
-94.560766000000001
0
LINE
8
BLACK
6
CONTINUOUS
10
151.8429409999999962
20
-94.560766000000001
11
151.9607660000000067
21
-94.4429409999999905
0
LINE
8
BLACK
6
CONTINUOUS
10
151.9607660000000067
20
-94.4429409999999905
11
152.0993129999999951
21
-94.3503669999999914
0
LINE
8
BLACK
6
CONTINUOUS
10
152.0993129999999951
20
-94.3503669999999914
11
152.2532579999999882
21
-94.2866009999999903
0
LINE
8
BLACK
6
CONTINUOUS
10
152.2532579999999882
20
-94.2866009999999903
11
152.4166850000000011
21
-94.2540929999999975
0
LINE
8
BLACK
6
CONTINUOUS
10
152.4166850000000011
20
-94.2540929999999975
11
152.5833149999999989
21
-94.2540929999999975
0
LINE
8
BLACK
6
CONTINUOUS
10
152.5833149999999989
20
-94.2540929999999975
11
152.7467419999999834
21
-94.2866009999999903
0
LINE
8
BLACK
6
CONTINUOUS
10
152.7467419999999834
20
-94.2866009999999903
11
152.9006870000000049
21
-94.3503669999999914
0
LINE
8
BLACK
6
CONTINUOUS
10
152.9006870000000049
20
-94.3503669999999914
11
153.0392339999999933
21
-94.4429409999999905
0
LINE
8
BLACK
6
CONTINUOUS
10
153.0392339999999933
20
-94.4429409999999905
11
153.1570590000000038
21
-94.560766000000001
0
LINE
8
BLACK
6
CONTINUOUS
10
153.1570590000000038
20
-94.560766000000001
11
153.2496329999999887
21
-94.6993129999999894
0
LINE
8
BLACK
6
CONTINUOUS
10
153.2496329999999887
20
-94.6993129999999894
11
153.313399000000004
21
-94.8532579999999967
0
LINE
8
BLACK
6
CONTINUOUS
10
153.313399000000004
20
-94.8532579999999967
11
153.3459069999999826
21
-95.0166849999999954
0
LINE
8
BLACK
6
CONTINUOUS
10
153.3459069999999826
20
-95.0166849999999954
11
153.3459069999999826
21
-95.1833149999999932
0
LINE
8
BLACK
6
CONTINUOUS
10
153.3459069999999826
20
-95.1833149999999932
11
153.313399000000004
21
-95.3467419999999919
0
LINE
8
BLACK
6
CONTINUOUS
10
153.313399000000004
20
-95.3467419999999919
11
153.2496329999999887
21
-95.5006869999999992
0
LINE
8
BLACK
6
CONTINUOUS
10
153.2496329999999887
20
-95.5006869999999992
11
153.1570590000000038
21
-95.6392340000000019
0
LINE
8
BLACK
6
CONTINUOUS
10
153.1570590000000038
20
-95.6392340000000019
11
153.0392339999999933
21
-95.7570589999999982
0
LINE
8
BLACK
6
CONTINUOUS
10
153.0392339999999933
20
-95.7570589999999982
11
152.9006870000000049
21
-95.8496329999999972
0
LINE
8
BLACK
6
CONTINUOUS
10
152.9006870000000049
20
-95.8496329999999972
11
152.7467419999999834
21
-95.9133989999999983
0
LINE
8
BLACK
6
CONTINUOUS
10
152.7467419999999834
20
-95.9133989999999983
11
152.6627249999999947
21
-95.9301109999999966
0
LINE
8
BLACK
6
CONTINUOUS
10
152.6627249999999947
20
-95.9301109999999966
11
152.6621749999999906
21
-95.9328620000000001
0
LINE
8
BLACK
6
CONTINUOUS
10
152.6621749999999906
20
-95.9328620000000001
11
152.6567330000000027
21
-95.9372400000000027
0
LINE
8
BLACK
6
CONTINUOUS
10
152.6567330000000027
20
-95.9372400000000027
11
152.1841660000000047
21
-96.1229399999999998
0
LINE
8
BLACK
6
CONTINUOUS
10
152.1841660000000047
20
-96.1229399999999998
11
151.941552999999999
21
-96.3655529999999914
0
LINE
8
BLACK
6
CONTINUOUS
10
151.941552999999999
20
-96.3655529999999914
11
151.8923959999999909
21
-96.4086609999999951
0
LINE
8
BLACK
6
CONTINUOUS
10
151.8923959999999909
20
-96.4086609999999951
11
151.8923810000000003
21
-96.4086769999999973
0
LINE
8
BLACK
6
CONTINUOUS
10
151.8923810000000003
20
-96.4086769999999973
11
151.7793419999999855
21
-96.4739399999999989
0
LINE
8
BLACK
6
CONTINUOUS
10
151.7793419999999855
20
-96.4739399999999989
11
151.6532629999999813
21
-96.5077229999999986
0
LINE
8
BLACK
6
CONTINUOUS
10
151.6532629999999813
20
-96.5077229999999986
11
151.6532479999999907
21
-96.5077229999999986
0
LINE
8
BLACK
6
CONTINUOUS
10
151.6532479999999907
20
-96.5077229999999986
11
151.5879999999999939
21
-96.5120000000000005
0
LINE
8
BLACK
6
CONTINUOUS
10
151.5879999999999939
20
-96.5120000000000005
11
147.828000000000003
21
-96.5120000000000005
0
LINE
8
BLACK
6
CONTINUOUS
10
147.828000000000003
20
-96.5120000000000005
11
147.7627520000000061
21
-96.5077229999999986
0
LINE
8
BLACK
6
CONTINUOUS
10
147.7627520000000061
20
-96.5077229999999986
11
147.7627369999999871
21
-96.5077229999999986
0
LINE
8
BLACK
6
CONTINUOUS
10
147.7627369999999871
20
-96.5077229999999986
11
147.6366579999999828
21
-96.4739399999999989
0
LINE
8
BLACK
6
CONTINUOUS
10
147.6366579999999828
20
-96.4739399999999989
11
147.5236189999999965
21
-96.4086769999999973
0
LINE
8
BLACK
6
CONTINUOUS
10
147.5236189999999965
20
-96.4086769999999973
11
147.5236029999999801
21
-96.4086609999999951
0
LINE
8
BLACK
6
CONTINUOUS
10
147.5236029999999801
20
-96.4086609999999951
11
147.4744469999999978
21
-96.3655529999999914
0
LINE
8
BLACK
6
CONTINUOUS
10
147.4744469999999978
20
-96.3655529999999914
11
146.6048940000000016
21
-95.4959999999999951
0
LINE
8
BLACK
6
CONTINUOUS
10
146.6048940000000016
20
-95.4959999999999951
11
145.8610219999999913
21
-95.4959999999999951
0
LINE
8
BLACK
6
CONTINUOUS
10
145.8610219999999913
20
-95.4959999999999951
11
145.7999999999999829
21
-95.5
0
LINE
8
BLACK
6
CONTINUOUS
10
145.7999999999999829
20
-95.5
11
145.0970049999999958
21
-95.5
0
LINE
8
BLACK
6
CONTINUOUS
10
145.0970049999999958
20
-95.5
11
145.0965730000000065
21
-95.5010419999999982
0
LINE
8
BLACK
6
CONTINUOUS
10
145.0965730000000065
20
-95.5010419999999982
11
145.093531999999982
21
-95.503233999999992
0
LINE
8
BLACK
6
CONTINUOUS
10
145.093531999999982
20
-95.503233999999992
11
144.1071660000000065
21
-95.9964159999999964
0
LINE
8
BLACK
6
CONTINUOUS
10
144.1071660000000065
20
-95.9964159999999964
11
144.0999999999999943
21
-95.9969249999999903
0
LINE
8
BLACK
6
CONTINUOUS
10
144.0999999999999943
20
-95.9969249999999903
11
144.0999999999999943
21
-96.0999999999999943
0
LINE
8
BLACK
6
CONTINUOUS
10
144.0999999999999943
20
-96.0999999999999943
11
141.9000000000000057
21
-96.0999999999999943
0
LINE
8
BLACK
6
CONTINUOUS
10
141.9000000000000057
20
-96.0999999999999943
11
141.9000000000000057
21
-93.8999999999999915
0
LINE
8
BLACK
6
CONTINUOUS
10
141.9000000000000057
20
-93.8999999999999915
11
144.0999999999999943
21
-93.8999999999999915
0
LINE
8
BLACK
6
CONTINUOUS
10
144.0999999999999943
20
-93.8999999999999915
11
144.0999999999999943
21
-94.0032559999999933
0
LINE
8
BLACK
6
CONTINUOUS
10
147.3886300000000062
20
-85.895079999999993
11
147.4697359999999833
21
-85.9492729999999909
0
LINE
8
BLACK
6
CONTINUOUS
10
147.4697359999999833
20
-85.9492729999999909
11
147.5239289999999812
21
-86.0303789999999964
0
LINE
8
BLACK
6
CONTINUOUS
10
147.5239289999999812
20
-86.0303789999999964
11
147.5429589999999962
21
-86.1260499999999922
0
LINE
8
BLACK
6
CONTINUOUS
10
147.5429589999999962
20
-86.1260499999999922
11
147.5429589999999962
21
-87.3760499999999922
0
LINE
8
BLACK
6
CONTINUOUS
10
147.5429589999999962
20
-87.3760499999999922
11
147.5420599999999922
21
-87.3805689999999942
0
LINE
8
BLACK
6
CONTINUOUS
10
147.5420599999999922
20
-87.3805689999999942
11
147.5419459999999958
21
-87.3821259999999995
0
LINE
8
BLACK
6
CONTINUOUS
10
147.5419459999999958
20
-87.3821259999999995
11
147.3945889999999963
21
-88.2662729999999982
0
LINE
8
BLACK
6
CONTINUOUS
10
147.3945889999999963
20
-88.2662729999999982
11
147.3929589999999905
21
-88.2688849999999974
0
LINE
8
BLACK
6
CONTINUOUS
10
147.3929589999999905
20
-88.2688849999999974
11
147.3929589999999905
21
-90.5518519999999967
0
LINE
8
BLACK
6
CONTINUOUS
10
147.3929589999999905
20
-90.5518519999999967
11
148.3622239999999977
21
-91.5211169999999896
0
LINE
8
BLACK
6
CONTINUOUS
10
148.3622239999999977
20
-91.5211169999999896
11
149.7825269999999875
21
-91.2088929999999891
0
LINE
8
BLACK
6
CONTINUOUS
10
149.7825269999999875
20
-91.2088929999999891
11
149.7913429999999835
21
-91.2104640000000018
0
LINE
8
BLACK
6
CONTINUOUS
10
149.7913429999999835
20
-91.2104640000000018
11
149.7917129999999872
21
-91.2109949999999969
0
LINE
8
BLACK
6
CONTINUOUS
10
149.7917129999999872
20
-91.2109949999999969
11
149.8766849999999806
21
-91.1940929999999952
0
LINE
8
BLACK
6
CONTINUOUS
10
149.8766849999999806
20
-91.1940929999999952
11
150.0433150000000069
21
-91.1940929999999952
0
LINE
8
BLACK
6
CONTINUOUS
10
150.0433150000000069
20
-91.1940929999999952
11
150.2067419999999913
21
-91.2266010000000023
0
LINE
8
BLACK
6
CONTINUOUS
10
150.2067419999999913
20
-91.2266010000000023
11
150.3606869999999844
21
-91.2903669999999892
0
LINE
8
BLACK
6
CONTINUOUS
10
150.3606869999999844
20
-91.2903669999999892
11
150.4992340000000013
21
-91.3829410000000024
0
LINE
8
BLACK
6
CONTINUOUS
10
150.4992340000000013
20
-91.3829410000000024
11
150.6170589999999834
21
-91.5007659999999987
0
LINE
8
BLACK
6
CONTINUOUS
10
150.6170589999999834
20
-91.5007659999999987
11
150.7096329999999966
21
-91.6393130000000014
0
LINE
8
BLACK
6
CONTINUOUS
10
150.7096329999999966
20
-91.6393130000000014
11
150.7733989999999835
21
-91.7932579999999945
0
LINE
8
BLACK
6
CONTINUOUS
10
150.7733989999999835
20
-91.7932579999999945
11
150.8059069999999906
21
-91.9566849999999931
0
LINE
8
BLACK
6
CONTINUOUS
10
150.8059069999999906
20
-91.9566849999999931
11
150.8059069999999906
21
-92.123314999999991
0
LINE
8
BLACK
6
CONTINUOUS
10
150.8059069999999906
20
-92.123314999999991
11
150.7890199999999936
21
-92.2082059999999899
0
LINE
8
BLACK
6
CONTINUOUS
10
150.7890199999999936
20
-92.2082059999999899
11
150.7894149999999911
21
-92.2084709999999887
0
LINE
8
BLACK
6
CONTINUOUS
10
150.7894149999999911
20
-92.2084709999999887
11
150.7911519999999825
21
-92.2172559999999919
0
LINE
8
BLACK
6
CONTINUOUS
10
150.7911519999999825
20
-92.2172559999999919
11
150.791105999999985
21
-92.2174720000000008
0
LINE
8
BLACK
6
CONTINUOUS
10
150.791105999999985
20
-92.2174720000000008
11
150.5212649999999996
21
-93.4449719999999928
0
LINE
8
BLACK
6
CONTINUOUS
10
150.5212649999999996
20
-93.4449719999999928
11
150.6170589999999834
21
-93.5407659999999908
0
LINE
8
BLACK
6
CONTINUOUS
10
150.6170589999999834
20
-93.5407659999999908
11
150.7096329999999966
21
-93.6793129999999934
0
LINE
8
BLACK
6
CONTINUOUS
10
150.7096329999999966
20
-93.6793129999999934
11
150.7733989999999835
21
-93.8332580000000007
0
LINE
8
BLACK
6
CONTINUOUS
10
150.7733989999999835
20
-93.8332580000000007
11
150.8059069999999906
21
-93.9966849999999994
0
LINE
8
BLACK
6
CONTINUOUS
10
150.8059069999999906
20
-93.9966849999999994
11
150.8059069999999906
21
-94.1633149999999972
0
LINE
8
BLACK
6
CONTINUOUS
10
150.8059069999999906
20
-94.1633149999999972
11
150.7733989999999835
21
-94.3267419999999959
0
LINE
8
BLACK
6
CONTINUOUS
10
150.7733989999999835
20
-94.3267419999999959
11
150.7096329999999966
21
-94.480686999999989
0
LINE
8
BLACK
6
CONTINUOUS
10
150.7096329999999966
20
-94.480686999999989
11
150.6170589999999834
21
-94.6192339999999916
0
LINE
8
BLACK
6
CONTINUOUS
10
150.6170589999999834
20
-94.6192339999999916
11
150.4992340000000013
21
-94.7370590000000021
0
LINE
8
BLACK
6
CONTINUOUS
10
150.4992340000000013
20
-94.7370590000000021
11
150.3606869999999844
21
-94.8296330000000012
0
LINE
8
BLACK
6
CONTINUOUS
10
150.3606869999999844
20
-94.8296330000000012
11
150.2067419999999913
21
-94.8933990000000023
0
LINE
8
BLACK
6
CONTINUOUS
10
150.2067419999999913
20
-94.8933990000000023
11
150.0433150000000069
21
-94.9259069999999952
0
LINE
8
BLACK
6
CONTINUOUS
10
150.0433150000000069
20
-94.9259069999999952
11
149.8766849999999806
21
-94.9259069999999952
0
LINE
8
BLACK
6
CONTINUOUS
10
149.8766849999999806
20
-94.9259069999999952
11
149.7132579999999962
21
-94.8933990000000023
0
LINE
8
BLACK
6
CONTINUOUS
10
149.7132579999999962
20
-94.8933990000000023
11
149.5593130000000031
21
-94.8296330000000012
0
LINE
8
BLACK
6
CONTINUOUS
10
149.5593130000000031
20
-94.8296330000000012
11
149.4207659999999862
21
-94.7370590000000021
0
LINE
8
BLACK
6
CONTINUOUS
10
149.4207659999999862
20
-94.7370590000000021
11
149.3029410000000041
21
-94.6192339999999916
0
LINE
8
BLACK
6
CONTINUOUS
10
149.3029410000000041
20
-94.6192339999999916
11
149.2103669999999909
21
-94.480686999999989
0
LINE
8
BLACK
6
CONTINUOUS
10
149.2103669999999909
20
-94.480686999999989
11
149.146601000000004
21
-94.3267419999999959
0
LINE
8
BLACK
6
CONTINUOUS
10
149.146601000000004
20
-94.3267419999999959
11
149.1140929999999969
21
-94.1633149999999972
0
LINE
8
BLACK
6
CONTINUOUS
10
149.1140929999999969
20
-94.1633149999999972
11
149.1140929999999969
21
-93.9966849999999994
0
LINE
8
BLACK
6
CONTINUOUS
10
149.1140929999999969
20
-93.9966849999999994
11
149.146601000000004
21
-93.8332580000000007
0
LINE
8
BLACK
6
CONTINUOUS
10
149.146601000000004
20
-93.8332580000000007
11
149.2103669999999909
21
-93.6793129999999934
0
LINE
8
BLACK
6
CONTINUOUS
10
149.2103669999999909
20
-93.6793129999999934
11
149.3029410000000041
21
-93.5407659999999908
0
LINE
8
BLACK
6
CONTINUOUS
10
149.3029410000000041
20
-93.5407659999999908
11
149.3987339999999904
21
-93.4449719999999928
0
LINE
8
BLACK
6
CONTINUOUS
10
149.3987339999999904
20
-93.4449719999999928
11
149.2466859999999826
21
-92.753311999999994
0
LINE
8
BLACK
6
CONTINUOUS
10
149.2466859999999826
20
-92.753311999999994
11
148.2855209999999886
21
-92.5420189999999963
0
LINE
8
BLACK
6
CONTINUOUS
10
148.2855209999999886
20
-92.5420189999999963
11
148.2826269999999909
21
-92.539999999999992
0
LINE
8
BLACK
6
CONTINUOUS
10
148.2826269999999909
20
-92.539999999999992
11
148.1740000000000066
21
-92.539999999999992
0
LINE
8
BLACK
6
CONTINUOUS
10
148.1740000000000066
20
-92.539999999999992
11
148.1087519999999813
21
-92.5357229999999902
0
LINE
8
BLACK
6
CONTINUOUS
10
148.1087519999999813
20
-92.5357229999999902
11
148.1087369999999908
21
-92.5357229999999902
0
LINE
8
BLACK
6
CONTINUOUS
10
148.1087369999999908
20
-92.5357229999999902
11
148.0093009999999936
21
-92.5090789999999998
0
LINE
8
BLACK
6
CONTINUOUS
10
148.0093009999999936
20
-92.5090789999999998
11
147.9826579999999865
21
-92.5019399999999905
0
LINE
8
BLACK
6
CONTINUOUS
10
147.9826579999999865
20
-92.5019399999999905
11
147.8696190000000001
21
-92.4366769999999889
0
LINE
8
BLACK
6
CONTINUOUS
10
147.8696190000000001
20
-92.4366769999999889
11
147.8696109999999919
21
-92.4366689999999949
0
LINE
8
BLACK
6
CONTINUOUS
10
147.8696109999999919
20
-92.4366689999999949
11
147.8204470000000015
21
-92.3935539999999946
0
LINE
8
BLACK
6
CONTINUOUS
10
147.8204470000000015
20
-92.3935539999999946
11
146.5394059999999854
21
-91.1125119999999953
0
LINE
8
BLACK
6
CONTINUOUS
10
146.5394059999999854
20
-91.1125119999999953
11
146.4962969999999984
21
-91.0633550000000014
0
LINE
8
BLACK
6
CONTINUOUS
10
146.4962969999999984
20
-91.0633550000000014
11
146.4962819999999795
21
-91.0633399999999966
0
LINE
8
BLACK
6
CONTINUOUS
10
146.4962819999999795
20
-91.0633399999999966
11
146.431018999999992
21
-90.9503009999999961
0
LINE
8
BLACK
6
CONTINUOUS
10
146.431018999999992
20
-90.9503009999999961
11
146.4273709999999937
21
-90.9366849999999971
0
LINE
8
BLACK
6
CONTINUOUS
10
146.4273709999999937
20
-90.9366849999999971
11
146.3972359999999924
21
-90.8242219999999918
0
LINE
8
BLACK
6
CONTINUOUS
10
146.3972359999999924
20
-90.8242219999999918
11
146.3972359999999924
21
-90.8242059999999896
0
LINE
8
BLACK
6
CONTINUOUS
10
146.3972359999999924
20
-90.8242059999999896
11
146.3929589999999905
21
-90.7589589999999902
0
LINE
8
BLACK
6
CONTINUOUS
10
146.3929589999999905
20
-90.7589589999999902
11
146.3929589999999905
21
-88.269440000000003
0
LINE
8
BLACK
6
CONTINUOUS
10
146.3929589999999905
20
-88.269440000000003
11
146.3913289999999847
21
-88.2662729999999982
0
LINE
8
BLACK
6
CONTINUOUS
10
146.3913289999999847
20
-88.2662729999999982
11
146.2439709999999877
21
-87.3821239999999904
0
LINE
8
BLACK
6
CONTINUOUS
10
146.2439709999999877
20
-87.3821239999999904
11
146.2440760000000068
21
-87.3816679999999906
0
LINE
8
BLACK
6
CONTINUOUS
10
146.2440760000000068
20
-87.3816679999999906
11
146.2429589999999848
21
-87.3760499999999922
0
LINE
8
BLACK
6
CONTINUOUS
10
146.2429589999999848
20
-87.3760499999999922
11
146.2429589999999848
21
-86.1260499999999922
0
LINE
8
BLACK
6
CONTINUOUS
10
146.2429589999999848
20
-86.1260499999999922
11
146.2619889999999998
21
-86.0303789999999964
0
LINE
8
BLACK
6
CONTINUOUS
10
146.2619889999999998
20
-86.0303789999999964
11
146.3161819999999977
21
-85.9492729999999909
0
LINE
8
BLACK
6
CONTINUOUS
10
146.3161819999999977
20
-85.9492729999999909
11
146.3972880000000032
21
-85.895079999999993
0
LINE
8
BLACK
6
CONTINUOUS
10
146.3972880000000032
20
-85.895079999999993
11
146.4929589999999848
21
-85.8760499999999922
0
LINE
8
BLACK
6
CONTINUOUS
10
146.4929589999999848
20
-85.8760499999999922
11
147.2929589999999962
21
-85.8760499999999922
0
LINE
8
BLACK
6
CONTINUOUS
10
147.2929589999999962
20
-85.8760499999999922
11
147.3886300000000062
21
-85.895079999999993
0
LINE
8
BLACK
6
CONTINUOUS
10
152.6682059999999979
20
-92.2309789999999907
11
152.6684709999999825
21
-92.2305839999999932
0
LINE
8
BLACK
6
CONTINUOUS
10
152.6684709999999825
20
-92.2305839999999932
11
152.6772559999999999
21
-92.2288470000000018
0
LINE
8
BLACK
6
CONTINUOUS
10
152.6772559999999999
20
-92.2288470000000018
11
152.6774719999999945
21
-92.2288929999999993
0
LINE
8
BLACK
6
CONTINUOUS
10
152.6774719999999945
20
-92.2288929999999993
11
152.7190089999999998
21
-92.2380239999999958
0
LINE
8
BLACK
6
CONTINUOUS
10
152.7190089999999998
20
-92.2380239999999958
11
154.1744789999999909
21
-92.5579800000000006
0
LINE
8
BLACK
6
CONTINUOUS
10
154.1744789999999909
20
-92.5579800000000006
11
154.1773749999999836
21
-92.5600000000000023
0
LINE
8
BLACK
6
CONTINUOUS
10
154.1773749999999836
20
-92.5600000000000023
11
156.0003759999999886
21
-92.5600000000000023
0
LINE
8
BLACK
6
CONTINUOUS
10
156.0003759999999886
20
-92.5600000000000023
11
156.003832999999986
21
-92.5581619999999958
0
LINE
8
BLACK
6
CONTINUOUS
10
156.003832999999986
20
-92.5581619999999958
11
156.8330709999999897
21
-92.397279999999995
0
LINE
8
BLACK
6
CONTINUOUS
10
156.8330709999999897
20
-92.397279999999995
11
156.8331440000000043
21
-92.3972940000000023
0
LINE
8
BLACK
6
CONTINUOUS
10
156.8331440000000043
20
-92.3972940000000023
11
156.894362000000001
21
-92.3851179999999914
0
LINE
8
BLACK
6
CONTINUOUS
10
156.894362000000001
20
-92.3851179999999914
11
158.144362000000001
21
-92.3851179999999914
0
LINE
8
BLACK
6
CONTINUOUS
10
158.144362000000001
20
-92.3851179999999914
11
158.2400329999999826
21
-92.4041479999999922
0
LINE
8
BLACK
6
CONTINUOUS
10
158.2400329999999826
20
-92.4041479999999922
11
158.3211389999999881
21
-92.4583409999999901
0
LINE
8
BLACK
6
CONTINUOUS
10
158.3211389999999881
20
-92.4583409999999901
11
158.375331999999986
21
-92.5394469999999956
0
LINE
8
BLACK
6
CONTINUOUS
10
158.375331999999986
20
-92.5394469999999956
11
158.394362000000001
21
-92.6351179999999914
0
LINE
8
BLACK
6
CONTINUOUS
10
158.394362000000001
20
-92.6351179999999914
11
158.394362000000001
21
-93.4351180000000028
0
LINE
8
BLACK
6
CONTINUOUS
10
158.394362000000001
20
-93.4351180000000028
11
158.375331999999986
21
-93.5307889999999986
0
LINE
8
BLACK
6
CONTINUOUS
10
158.375331999999986
20
-93.5307889999999986
11
158.3211389999999881
21
-93.6118949999999899
0
LINE
8
BLACK
6
CONTINUOUS
10
158.3211389999999881
20
-93.6118949999999899
11
158.2400329999999826
21
-93.666088000000002
0
LINE
8
BLACK
6
CONTINUOUS
10
158.2400329999999826
20
-93.666088000000002
11
158.144362000000001
21
-93.6851180000000028
0
LINE
8
BLACK
6
CONTINUOUS
10
158.144362000000001
20
-93.6851180000000028
11
156.894362000000001
21
-93.6851180000000028
0
LINE
8
BLACK
6
CONTINUOUS
10
156.894362000000001
20
-93.6851180000000028
11
156.8904440000000022
21
-93.6843379999999968
0
LINE
8
BLACK
6
CONTINUOUS
10
156.8904440000000022
20
-93.6843379999999968
11
156.8902899999999931
21
-93.6844059999999956
0
LINE
8
BLACK
6
CONTINUOUS
10
156.8902899999999931
20
-93.6844059999999956
11
156.8884589999999832
21
-93.6842970000000008
0
LINE
8
BLACK
6
CONTINUOUS
10
156.8884589999999832
20
-93.6842970000000008
11
156.0044509999999889
21
-93.5614020000000011
0
LINE
8
BLACK
6
CONTINUOUS
10
156.0044509999999889
20
-93.5614020000000011
11
156.0020629999999926
21
-93.5600000000000023
0
LINE
8
BLACK
6
CONTINUOUS
10
156.0020629999999926
20
-93.5600000000000023
11
154.178167000000002
21
-93.5600000000000023
0
LINE
8
BLACK
6
CONTINUOUS
10
154.178167000000002
20
-93.5600000000000023
11
154.1744789999999909
21
-93.5620189999999923
0
LINE
8
BLACK
6
CONTINUOUS
10
154.1744789999999909
20
-93.5620189999999923
11
152.6774719999999945
21
-93.8911059999999935
0
LINE
8
BLACK
6
CONTINUOUS
10
152.6774719999999945
20
-93.8911059999999935
11
152.6686559999999986
21
-93.8895349999999951
0
LINE
8
BLACK
6
CONTINUOUS
10
152.6686559999999986
20
-93.8895349999999951
11
152.6682859999999948
21
-93.8890039999999999
0
LINE
8
BLACK
6
CONTINUOUS
10
152.6682859999999948
20
-93.8890039999999999
11
152.5833149999999989
21
-93.9059069999999991
0
LINE
8
BLACK
6
CONTINUOUS
10
152.5833149999999989
20
-93.9059069999999991
11
152.4166850000000011
21
-93.9059069999999991
0
LINE
8
BLACK
6
CONTINUOUS
10
152.4166850000000011
20
-93.9059069999999991
11
152.2532579999999882
21
-93.873398999999992
0
LINE
8
BLACK
6
CONTINUOUS
10
152.2532579999999882
20
-93.873398999999992
11
152.0993129999999951
21
-93.8096329999999909
0
LINE
8
BLACK
6
CONTINUOUS
10
152.0993129999999951
20
-93.8096329999999909
11
151.9607660000000067
21
-93.7170589999999919
0
LINE
8
BLACK
6
CONTINUOUS
10
151.9607660000000067
20
-93.7170589999999919
11
151.8429409999999962
21
-93.5992339999999956
0
LINE
8
BLACK
6
CONTINUOUS
10
151.8429409999999962
20
-93.5992339999999956
11
151.7503669999999829
21
-93.460686999999993
0
LINE
8
BLACK
6
CONTINUOUS
10
151.7503669999999829
20
-93.460686999999993
11
151.686600999999996
21
-93.3067419999999998
0
LINE
8
BLACK
6
CONTINUOUS
10
151.686600999999996
20
-93.3067419999999998
11
151.6540929999999889
21
-93.1433150000000012
0
LINE
8
BLACK
6
CONTINUOUS
10
151.6540929999999889
20
-93.1433150000000012
11
151.6540929999999889
21
-92.9766849999999891
0
LINE
8
BLACK
6
CONTINUOUS
10
151.6540929999999889
20
-92.9766849999999891
11
151.686600999999996
21
-92.8132579999999905
0
LINE
8
BLACK
6
CONTINUOUS
10
151.686600999999996
20
-92.8132579999999905
11
151.7503669999999829
21
-92.6593129999999974
0
LINE
8
BLACK
6
CONTINUOUS
10
151.7503669999999829
20
-92.6593129999999974
11
151.8429409999999962
21
-92.5207659999999947
0
LINE
8
BLACK
6
CONTINUOUS
10
151.8429409999999962
20
-92.5207659999999947
11
151.9607660000000067
21
-92.4029409999999984
0
LINE
8
BLACK
6
CONTINUOUS
10
151.9607660000000067
20
-92.4029409999999984
11
152.0993129999999951
21
-92.3103669999999994
0
LINE
8
BLACK
6
CONTINUOUS
10
152.0993129999999951
20
-92.3103669999999994
11
152.2532579999999882
21
-92.2466009999999983
0
LINE
8
BLACK
6
CONTINUOUS
10
152.2532579999999882
20
-92.2466009999999983
11
152.4166850000000011
21
-92.2140929999999912
0
LINE
8
BLACK
6
CONTINUOUS
10
152.4166850000000011
20
-92.2140929999999912
11
152.5833149999999989
21
-92.2140929999999912
0
LINE
8
BLACK
6
CONTINUOUS
10
152.5833149999999989
20
-92.2140929999999912
11
152.6682059999999979
21
-92.2309789999999907
0
LINE
8
BLACK
6
CONTINUOUS
10
152.7467419999999834
20
-90.206600999999992
11
152.9006870000000049
21
-90.2703669999999931
0
LINE
8
BLACK
6
CONTINUOUS
10
152.9006870000000049
20
-90.2703669999999931
11
153.0392339999999933
21
-90.3629409999999922
0
LINE
8
BLACK
6
CONTINUOUS
10
153.0392339999999933
20
-90.3629409999999922
11
153.1570590000000038
21
-90.4807660000000027
0
LINE
8
BLACK
6
CONTINUOUS
10
153.1570590000000038
20
-90.4807660000000027
11
153.2496329999999887
21
-90.6193129999999911
0
LINE
8
BLACK
6
CONTINUOUS
10
153.2496329999999887
20
-90.6193129999999911
11
153.313399000000004
21
-90.7732579999999984
0
LINE
8
BLACK
6
CONTINUOUS
10
153.313399000000004
20
-90.7732579999999984
11
153.3459069999999826
21
-90.9366849999999971
0
LINE
8
BLACK
6
CONTINUOUS
10
153.3459069999999826
20
-90.9366849999999971
11
153.3459069999999826
21
-91.1033149999999949
0
LINE
8
BLACK
6
CONTINUOUS
10
153.3459069999999826
20
-91.1033149999999949
11
153.313399000000004
21
-91.2667419999999936
0
LINE
8
BLACK
6
CONTINUOUS
10
153.313399000000004
20
-91.2667419999999936
11
153.2496329999999887
21
-91.4206870000000009
0
LINE
8
BLACK
6
CONTINUOUS
10
153.2496329999999887
20
-91.4206870000000009
11
153.1570590000000038
21
-91.5592339999999894
0
LINE
8
BLACK
6
CONTINUOUS
10
153.1570590000000038
20
-91.5592339999999894
11
153.0392339999999933
21
-91.6770589999999999
0
LINE
8
BLACK
6
CONTINUOUS
10
153.0392339999999933
20
-91.6770589999999999
11
152.9006870000000049
21
-91.7696329999999989
0
LINE
8
BLACK
6
CONTINUOUS
10
152.9006870000000049
20
-91.7696329999999989
11
152.7467419999999834
21
-91.833399
0
LINE
8
BLACK
6
CONTINUOUS
10
152.7467419999999834
20
-91.833399
11
152.5833149999999989
21
-91.8659069999999929
0
LINE
8
BLACK
6
CONTINUOUS
10
152.5833149999999989
20
-91.8659069999999929
11
152.4166850000000011
21
-91.8659069999999929
0
LINE
8
BLACK
6
CONTINUOUS
10
152.4166850000000011
20
-91.8659069999999929
11
152.2532579999999882
21
-91.833399
0
LINE
8
BLACK
6
CONTINUOUS
10
152.2532579999999882
20
-91.833399
11
152.0993129999999951
21
-91.7696329999999989
0
LINE
8
BLACK
6
CONTINUOUS
10
152.0993129999999951
20
-91.7696329999999989
11
151.9607660000000067
21
-91.6770589999999999
0
LINE
8
BLACK
6
CONTINUOUS
10
151.9607660000000067
20
-91.6770589999999999
11
151.8429409999999962
21
-91.5592339999999894
0
LINE
8
BLACK
6
CONTINUOUS
10
151.8429409999999962
20
-91.5592339999999894
11
151.7503669999999829
21
-91.4206870000000009
0
LINE
8
BLACK
6
CONTINUOUS
10
151.7503669999999829
20
-91.4206870000000009
11
151.686600999999996
21
-91.2667419999999936
0
LINE
8
BLACK
6
CONTINUOUS
10
151.686600999999996
20
-91.2667419999999936
11
151.6540929999999889
21
-91.1033149999999949
0
LINE
8
BLACK
6
CONTINUOUS
10
151.6540929999999889
20
-91.1033149999999949
11
151.6540929999999889
21
-90.9366849999999971
0
LINE
8
BLACK
6
CONTINUOUS
10
151.6540929999999889
20
-90.9366849999999971
11
151.686600999999996
21
-90.7732579999999984
0
LINE
8
BLACK
6
CONTINUOUS
10
151.686600999999996
20
-90.7732579999999984
11
151.7503669999999829
21
-90.6193129999999911
0
LINE
8
BLACK
6
CONTINUOUS
10
151.7503669999999829
20
-90.6193129999999911
11
151.8429409999999962
21
-90.4807660000000027
0
LINE
8
BLACK
6
CONTINUOUS
10
151.8429409999999962
20
-90.4807660000000027
11
151.9607660000000067
21
-90.3629409999999922
0
LINE
8
BLACK
6
CONTINUOUS
10
151.9607660000000067
20
-90.3629409999999922
11
152.0993129999999951
21
-90.2703669999999931
0
LINE
8
BLACK
6
CONTINUOUS
10
152.0993129999999951
20
-90.2703669999999931
11
152.2532579999999882
21
-90.206600999999992
0
LINE
8
BLACK
6
CONTINUOUS
10
152.2532579999999882
20
-90.206600999999992
11
152.4166850000000011
21
-90.1740929999999992
0
LINE
8
BLACK
6
CONTINUOUS
10
152.4166850000000011
20
-90.1740929999999992
11
152.5833149999999989
21
-90.1740929999999992
0
LINE
8
BLACK
6
CONTINUOUS
10
152.5833149999999989
20
-90.1740929999999992
11
152.7467419999999834
21
-90.206600999999992
0
LINE
8
BLACK
6
CONTINUOUS
10
150.4886319999999955
20
-85.895079999999993
11
150.569738000000001
21
-85.9492729999999909
0
LINE
8
BLACK
6
CONTINUOUS
10
150.569738000000001
20
-85.9492729999999909
11
150.6239309999999989
21
-86.0303789999999964
0
LINE
8
BLACK
6
CONTINUOUS
10
150.6239309999999989
20
-86.0303789999999964
11
150.6429609999999855
21
-86.1260499999999922
0
LINE
8
BLACK
6
CONTINUOUS
10
150.6429609999999855
20
-86.1260499999999922
11
150.6429609999999855
21
-87.3760499999999922
0
LINE
8
BLACK
6
CONTINUOUS
10
150.6429609999999855
20
-87.3760499999999922
11
150.6239309999999989
21
-87.4717210000000023
0
LINE
8
BLACK
6
CONTINUOUS
10
150.6239309999999989
20
-87.4717210000000023
11
150.6223760000000027
21
-87.4740469999999988
0
LINE
8
BLACK
6
CONTINUOUS
10
150.6223760000000027
20
-87.4740469999999988
11
150.6229830000000049
21
-87.4758429999999976
0
LINE
8
BLACK
6
CONTINUOUS
10
150.6229830000000049
20
-87.4758429999999976
11
150.6227729999999951
21
-87.4773969999999963
0
LINE
8
BLACK
6
CONTINUOUS
10
150.6227729999999951
20
-87.4773969999999963
11
150.461907999999994
21
-88.2666869999999903
0
LINE
8
BLACK
6
CONTINUOUS
10
150.461907999999994
20
-88.2666869999999903
11
150.4599999999999795
21
-88.2695129999999892
0
LINE
8
BLACK
6
CONTINUOUS
10
150.4599999999999795
20
-88.2695129999999892
11
150.4599999999999795
21
-88.3032449999999898
0
LINE
8
BLACK
6
CONTINUOUS
10
150.4599999999999795
20
-88.3032449999999898
11
150.4604369999999847
21
-88.3034269999999992
0
LINE
8
BLACK
6
CONTINUOUS
10
150.4604369999999847
20
-88.3034269999999992
11
150.4629829999999799
21
-88.3072449999999947
0
LINE
8
BLACK
6
CONTINUOUS
10
150.4629829999999799
20
-88.3072449999999947
11
150.8070319999999924
21
-89.142792
0
LINE
8
BLACK
6
CONTINUOUS
10
150.8070319999999924
20
-89.142792
11
150.8070170000000019
21
-89.1499999999999915
0
LINE
8
BLACK
6
CONTINUOUS
10
150.8070170000000019
20
-89.1499999999999915
11
150.8100000000000023
21
-89.1499999999999915
0
LINE
8
BLACK
6
CONTINUOUS
10
150.8100000000000023
20
-89.1499999999999915
11
150.8100000000000023
21
-90.8499999999999943
0
LINE
8
BLACK
6
CONTINUOUS
10
150.8100000000000023
20
-90.8499999999999943
11
149.1099999999999852
21
-90.8499999999999943
0
LINE
8
BLACK
6
CONTINUOUS
10
149.1099999999999852
20
-90.8499999999999943
11
149.1099999999999852
21
-89.1499999999999915
0
LINE
8
BLACK
6
CONTINUOUS
10
149.1099999999999852
20
-89.1499999999999915
11
149.1132269999999949
21
-89.1499999999999915
0
LINE
8
BLACK
6
CONTINUOUS
10
149.1132269999999949
20
-89.1499999999999915
11
149.112086000000005
21
-89.1472399999999965
0
LINE
8
BLACK
6
CONTINUOUS
10
149.112086000000005
20
-89.1472399999999965
11
149.1129660000000001
21
-89.1427959999999899
0
LINE
8
BLACK
6
CONTINUOUS
10
149.1129660000000001
20
-89.1427959999999899
11
149.4570169999999791
21
-88.3072449999999947
0
LINE
8
BLACK
6
CONTINUOUS
10
149.4570169999999791
20
-88.3072449999999947
11
149.4599999999999795
21
-88.3042489999999987
0
LINE
8
BLACK
6
CONTINUOUS
10
149.4599999999999795
20
-88.3042489999999987
11
149.4599999999999795
21
-88.2685510000000022
0
LINE
8
BLACK
6
CONTINUOUS
10
149.4599999999999795
20
-88.2685510000000022
11
149.4586749999999995
21
-88.2658589999999919
0
LINE
8
BLACK
6
CONTINUOUS
10
149.4586749999999995
20
-88.2658589999999919
11
149.3968399999999974
21
-87.7903669999999892
0
LINE
8
BLACK
6
CONTINUOUS
10
149.3968399999999974
20
-87.7903669999999892
11
149.343720999999988
21
-87.3818950000000001
0
LINE
8
BLACK
6
CONTINUOUS
10
149.343720999999988
20
-87.3818950000000001
11
149.3439520000000016
21
-87.3810349999999971
0
LINE
8
BLACK
6
CONTINUOUS
10
149.3439520000000016
20
-87.3810349999999971
11
149.3429610000000025
21
-87.3760499999999922
0
LINE
8
BLACK
6
CONTINUOUS
10
149.3429610000000025
20
-87.3760499999999922
11
149.3429610000000025
21
-86.1260499999999922
0
LINE
8
BLACK
6
CONTINUOUS
10
149.3429610000000025
20
-86.1260499999999922
11
149.3619909999999891
21
-86.0303789999999964
0
LINE
8
BLACK
6
CONTINUOUS
10
149.3619909999999891
20
-86.0303789999999964
11
149.416183999999987
21
-85.9492729999999909
0
LINE
8
BLACK
6
CONTINUOUS
10
149.416183999999987
20
-85.9492729999999909
11
149.4972899999999925
21
-85.895079999999993
0
LINE
8
BLACK
6
CONTINUOUS
10
149.4972899999999925
20
-85.895079999999993
11
149.5929610000000025
21
-85.8760499999999922
0
LINE
8
BLACK
6
CONTINUOUS
10
149.5929610000000025
20
-85.8760499999999922
11
150.3929609999999855
21
-85.8760499999999922
0
LINE
8
BLACK
6
CONTINUOUS
10
150.3929609999999855
20
-85.8760499999999922
11
150.4886319999999955
21
-85.895079999999993
0
CIRCLE
8
BLACK
10
143.
20
-89.
40
1.5999999999999999
0
CIRCLE
8
BLACK
10
143.
20
-95.
40
0.5
0
CIRCLE
8
BLACK
10
143.
20
-97.539999999999992
40
0.5
0
CIRCLE
8
BLACK
10
154.7999999999999829
20
-98.5499999999999972
40
1.1499999999999999
0
CIRCLE
8
BLACK
10
154.7999999999999829
20
-86.5499999999999972
40
1.1499999999999999
0
CIRCLE
8
BLACK
10
149.9599999999999795
20
-90.
40
0.45
0
CIRCLE
8
BLACK
10
152.5
20
-91.019999999999996
40
0.45
0
CIRCLE
8
BLACK
10
149.9599999999999795
20
-92.039999999999992
40
0.45
0
CIRCLE
8
BLACK
10
152.5
20
-93.0600000000000023
40
0.45
0
CIRCLE
8
BLACK
10
149.9599999999999795
20
-94.0799999999999983
40
0.45
0
CIRCLE
8
BLACK
10
152.5
20
-95.0999999999999943
40
0.45
0
LINE
8
BLACK
6
CONTINUOUS
10
159.
20
-84.9749999999999943
11
159.2643159999999796
21
-84.9923239999999964
0
LINE
8
BLACK
6
CONTINUOUS
10
159.2643159999999796
20
-84.9923239999999964
11
159.5241089999999815
21
-85.0439999999999969
0
LINE
8
BLACK
6
CONTINUOUS
10
159.5241089999999815
20
-85.0439999999999969
11
159.7749340000000018
21
-85.1291439999999966
0
LINE
8
BLACK
6
CONTINUOUS
10
159.7749340000000018
20
-85.1291439999999966
11
160.0124999999999886
21
-85.2462989999999934
0
LINE
8
BLACK
6
CONTINUOUS
10
160.0124999999999886
20
-85.2462989999999934
11
160.2327420000000018
21
-85.3934589999999929
0
LINE
8
BLACK
6
CONTINUOUS
10
160.2327420000000018
20
-85.3934589999999929
11
160.4318909999999789
21
-85.5681089999999926
0
LINE
8
BLACK
6
CONTINUOUS
10
160.4318909999999789
20
-85.5681089999999926
11
160.6065409999999929
21
-85.7672579999999982
0
LINE
8
BLACK
6
CONTINUOUS
10
160.6065409999999929
20
-85.7672579999999982
11
160.7537010000000066
21
-85.9874999999999972
0
LINE
8
BLACK
6
CONTINUOUS
10
160.7537010000000066
20
-85.9874999999999972
11
160.8708560000000034
21
-86.2250659999999982
0
LINE
8
BLACK
6
CONTINUOUS
10
160.8708560000000034
20
-86.2250659999999982
11
160.9559999999999889
21
-86.4758909999999901
0
LINE
8
BLACK
6
CONTINUOUS
10
160.9559999999999889
20
-86.4758909999999901
11
161.0076760000000036
21
-86.735683999999992
0
LINE
8
BLACK
6
CONTINUOUS
10
161.0076760000000036
20
-86.735683999999992
11
161.0250000000000057
21
-87.
0
LINE
8
BLACK
6
CONTINUOUS
10
161.0250000000000057
20
-87.
11
161.0250000000000057
21
-98.
0
LINE
8
BLACK
6
CONTINUOUS
10
161.0250000000000057
20
-98.
11
161.0076760000000036
21
-98.2643159999999938
0
LINE
8
BLACK
6
CONTINUOUS
10
161.0076760000000036
20
-98.2643159999999938
11
160.9559999999999889
21
-98.5241089999999957
0
LINE
8
BLACK
6
CONTINUOUS
10
160.9559999999999889
20
-98.5241089999999957
11
160.8708560000000034
21
-98.7749340000000018
0
LINE
8
BLACK
6
CONTINUOUS
10
160.8708560000000034
20
-98.7749340000000018
11
160.7537010000000066
21
-99.0124999999999886
0
LINE
8
BLACK
6
CONTINUOUS
10
160.7537010000000066
20
-99.0124999999999886
11
160.6065409999999929
21
-99.2327420000000018
0
LINE
8
BLACK
6
CONTINUOUS
10
160.6065409999999929
20
-99.2327420000000018
11
160.4318909999999789
21
-99.4318909999999931
0
LINE
8
BLACK
6
CONTINUOUS
10
160.4318909999999789
20
-99.4318909999999931
11
160.2327420000000018
21
-99.6065409999999929
0
LINE
8
BLACK
6
CONTINUOUS
10
160.2327420000000018
20
-99.6065409999999929
11
160.0124999999999886
21
-99.7537009999999924
0
LINE
8
BLACK
6
CONTINUOUS
10
160.0124999999999886
20
-99.7537009999999924
11
159.7749340000000018
21
-99.8708559999999892
0
LINE
8
BLACK
6
CONTINUOUS
10
159.7749340000000018
20
-99.8708559999999892
11
159.5241089999999815
21
-99.9559999999999889
0
LINE
8
BLACK
6
CONTINUOUS
10
159.5241089999999815
20
-99.9559999999999889
11
159.2643159999999796
21
-100.0076759999999894
0
LINE
8
BLACK
6
CONTINUOUS
10
159.2643159999999796
20
-100.0076759999999894
11
159.
21
-100.0249999999999915
0
LINE
8
BLACK
6
CONTINUOUS
10
159.
20
-100.0249999999999915
11
141.
21
-100.0249999999999915
0
LINE
8
BLACK
6
CONTINUOUS
10
141.
20
-100.0249999999999915
11
140.735683999999992
21
-100.0076759999999894
0
LINE
8
BLACK
6
CONTINUOUS
10
140.735683999999992
20
-100.0076759999999894
11
140.4758909999999901
21
-99.9559999999999889
0
LINE
8
BLACK
6
CONTINUOUS
10
140.4758909999999901
20
-99.9559999999999889
11
140.2250659999999982
21
-99.8708559999999892
0
LINE
8
BLACK
6
CONTINUOUS
10
140.2250659999999982
20
-99.8708559999999892
11
139.9874999999999829
21
-99.7537009999999924
0
LINE
8
BLACK
6
CONTINUOUS
10
139.9874999999999829
20
-99.7537009999999924
11
139.7672579999999982
21
-99.6065409999999929
0
LINE
8
BLACK
6
CONTINUOUS
10
139.7672579999999982
20
-99.6065409999999929
11
139.5681089999999926
21
-99.4318909999999931
0
LINE
8
BLACK
6
CONTINUOUS
10
139.5681089999999926
20
-99.4318909999999931
11
139.3934590000000071
21
-99.2327420000000018
0
LINE
8
BLACK
6
CONTINUOUS
10
139.3934590000000071
20
-99.2327420000000018
11
139.2462989999999934
21
-99.0124999999999886
0
LINE
8
BLACK
6
CONTINUOUS
10
139.2462989999999934
20
-99.0124999999999886
11
139.1291439999999966
21
-98.7749340000000018
0
LINE
8
BLACK
6
CONTINUOUS
10
139.1291439999999966
20
-98.7749340000000018
11
139.0439999999999827
21
-98.5241089999999957
0
LINE
8
BLACK
6
CONTINUOUS
10
139.0439999999999827
20
-98.5241089999999957
11
138.9923239999999964
21
-98.2643159999999938
0
LINE
8
BLACK
6
CONTINUOUS
10
138.9923239999999964
20
-98.2643159999999938
11
138.9749999999999943
21
-98.
0
LINE
8
BLACK
6
CONTINUOUS
10
138.9749999999999943
20
-98.
11
138.9749999999999943
21
-89.
0
LINE
8
BLACK
6
CONTINUOUS
10
138.9749999999999943
20
-89.
11
138.9921699999999873
21
-88.628619999999998
0
LINE
8
BLACK
6
CONTINUOUS
10
138.9921699999999873
20
-88.628619999999998
11
139.0435329999999965
21
-88.2604079999999982
0
LINE
8
BLACK
6
CONTINUOUS
10
139.0435329999999965
20
-88.2604079999999982
11
139.1286519999999882
21
-87.8985059999999976
0
LINE
8
BLACK
6
CONTINUOUS
10
139.1286519999999882
20
-87.8985059999999976
11
139.2467989999999816
21
-87.5460020000000014
0
LINE
8
BLACK
6
CONTINUOUS
10
139.2467989999999816
20
-87.5460020000000014
11
139.3969679999999869
21
-87.2059029999999922
0
LINE
8
BLACK
6
CONTINUOUS
10
139.3969679999999869
20
-87.2059029999999922
11
139.5778760000000034
21
-86.88111099999999
0
LINE
8
BLACK
6
CONTINUOUS
10
139.5778760000000034
20
-86.88111099999999
11
139.787981000000002
21
-86.574395999999993
0
LINE
8
BLACK
6
CONTINUOUS
10
139.787981000000002
20
-86.574395999999993
11
140.0254889999999932
21
-86.288375000000002
0
LINE
8
BLACK
6
CONTINUOUS
10
140.0254889999999932
20
-86.288375000000002
11
140.288375000000002
21
-86.0254889999999932
0
LINE
8
BLACK
6
CONTINUOUS
10
140.288375000000002
20
-86.0254889999999932
11
140.5743960000000072
21
-85.787981000000002
0
LINE
8
BLACK
6
CONTINUOUS
10
140.5743960000000072
20
-85.787981000000002
11
140.8811110000000042
21
-85.5778759999999892
0
LINE
8
BLACK
6
CONTINUOUS
10
140.8811110000000042
20
-85.5778759999999892
11
141.2059030000000064
21
-85.3969680000000011
0
LINE
8
BLACK
6
CONTINUOUS
10
141.2059030000000064
20
-85.3969680000000011
11
141.5460019999999872
21
-85.2467989999999958
0
LINE
8
BLACK
6
CONTINUOUS
10
141.5460019999999872
20
-85.2467989999999958
11
141.8985059999999976
21
-85.1286520000000024
0
LINE
8
BLACK
6
CONTINUOUS
10
141.8985059999999976
20
-85.1286520000000024
11
142.260407999999984
21
-85.0435329999999965
0
LINE
8
BLACK
6
CONTINUOUS
10
142.260407999999984
20
-85.0435329999999965
11
142.6286199999999837
21
-84.9921700000000016
0
LINE
8
BLACK
6
CONTINUOUS
10
142.6286199999999837
20
-84.9921700000000016
11
143.
21
-84.9749999999999943
0
LINE
8
BLACK
6
CONTINUOUS
10
143.
20
-84.9749999999999943
11
159.
21
-84.9749999999999943
0
LINE
8
BLACK
6
CONTINUOUS
10
143.
20
-85.0249999999999915
11
142.8162250000000029
21
-85.0249999999999915
0
LINE
8
BLACK
6
CONTINUOUS
10
142.8162250000000029
20
-85.0249999999999915
11
142.4502420000000029
21
-85.0589129999999898
0
LINE
8
BLACK
6
CONTINUOUS
10
142.4502420000000029
20
-85.0589129999999898
11
142.0889489999999853
21
-85.126451000000003
0
LINE
8
BLACK
6
CONTINUOUS
10
142.0889489999999853
20
-85.126451000000003
11
141.7354299999999796
21
-85.2270359999999982
0
LINE
8
BLACK
6
CONTINUOUS
10
141.7354299999999796
20
-85.2270359999999982
11
141.3926989999999932
21
-85.359809999999996
0
LINE
8
BLACK
6
CONTINUOUS
10
141.3926989999999932
20
-85.359809999999996
11
141.0636810000000025
21
-85.5236419999999953
0
LINE
8
BLACK
6
CONTINUOUS
10
141.0636810000000025
20
-85.5236419999999953
11
140.7511829999999975
21
-85.7171319999999923
0
LINE
8
BLACK
6
CONTINUOUS
10
140.7511829999999975
20
-85.7171319999999923
11
140.457870999999983
21
-85.9386310000000009
0
LINE
8
BLACK
6
CONTINUOUS
10
140.457870999999983
20
-85.9386310000000009
11
140.1862480000000062
21
-86.186247999999992
0
LINE
8
BLACK
6
CONTINUOUS
10
140.1862480000000062
20
-86.186247999999992
11
139.9386309999999867
21
-86.4578709999999973
0
LINE
8
BLACK
6
CONTINUOUS
10
139.9386309999999867
20
-86.4578709999999973
11
139.7171319999999923
21
-86.7511829999999975
0
LINE
8
BLACK
6
CONTINUOUS
10
139.7171319999999923
20
-86.7511829999999975
11
139.5236419999999953
21
-87.0636810000000025
0
LINE
8
BLACK
6
CONTINUOUS
10
139.5236419999999953
20
-87.0636810000000025
11
139.3598099999999818
21
-87.3926989999999932
0
LINE
8
BLACK
6
CONTINUOUS
10
139.3598099999999818
20
-87.3926989999999932
11
139.2270359999999982
21
-87.7354299999999938
0
LINE
8
BLACK
6
CONTINUOUS
10
139.2270359999999982
20
-87.7354299999999938
11
139.126451000000003
21
-88.0889489999999995
0
LINE
8
BLACK
6
CONTINUOUS
10
139.126451000000003
20
-88.0889489999999995
11
139.0589129999999898
21
-88.4502420000000029
0
LINE
8
BLACK
6
CONTINUOUS
10
139.0589129999999898
20
-88.4502420000000029
11
139.0250000000000057
21
-88.8162250000000029
0
LINE
8
BLACK
6
CONTINUOUS
10
139.0250000000000057
20
-88.8162250000000029
11
139.0250000000000057
21
-89.
0
LINE
8
BLACK
6
CONTINUOUS
10
139.0250000000000057
20
-89.
11
139.0250000000000057
21
-98.
0
LINE
8
BLACK
6
CONTINUOUS
10
139.0250000000000057
20
-98.
11
139.0250000000000057
21
-98.1294479999999965
0
LINE
8
BLACK
6
CONTINUOUS
10
139.0250000000000057
20
-98.1294479999999965
11
139.0587929999999801
21
-98.3861299999999943
0
LINE
8
BLACK
6
CONTINUOUS
10
139.0587929999999801
20
-98.3861299999999943
11
139.1257999999999981
21
-98.6362049999999897
0
LINE
8
BLACK
6
CONTINUOUS
10
139.1257999999999981
20
-98.6362049999999897
11
139.2248749999999973
21
-98.8753949999999975
0
LINE
8
BLACK
6
CONTINUOUS
10
139.2248749999999973
20
-98.8753949999999975
11
139.3543239999999912
21
-99.0996059999999943
0
LINE
8
BLACK
6
CONTINUOUS
10
139.3543239999999912
20
-99.0996059999999943
11
139.5119300000000067
21
-99.3050020000000018
0
LINE
8
BLACK
6
CONTINUOUS
10
139.5119300000000067
20
-99.3050020000000018
11
139.6949979999999982
21
-99.4880699999999933
0
LINE
8
BLACK
6
CONTINUOUS
10
139.6949979999999982
20
-99.4880699999999933
11
139.9003940000000057
21
-99.6456759999999946
0
LINE
8
BLACK
6
CONTINUOUS
10
139.9003940000000057
20
-99.6456759999999946
11
140.1246050000000025
21
-99.7751249999999885
0
LINE
8
BLACK
6
CONTINUOUS
10
140.1246050000000025
20
-99.7751249999999885
11
140.3637949999999819
21
-99.8742000000000019
0
LINE
8
BLACK
6
CONTINUOUS
10
140.3637949999999819
20
-99.8742000000000019
11
140.6138699999999915
21
-99.9412069999999915
0
LINE
8
BLACK
6
CONTINUOUS
10
140.6138699999999915
20
-99.9412069999999915
11
140.8705520000000035
21
-99.9749999999999943
0
LINE
8
BLACK
6
CONTINUOUS
10
140.8705520000000035
20
-99.9749999999999943
11
141.
21
-99.9749999999999943
0
LINE
8
BLACK
6
CONTINUOUS
10
141.
20
-99.9749999999999943
11
159.
21
-99.9749999999999943
0
LINE
8
BLACK
6
CONTINUOUS
10
159.
20
-99.9749999999999943
11
159.1294479999999965
21
-99.9749999999999943
0
LINE
8
BLACK
6
CONTINUOUS
10
159.1294479999999965
20
-99.9749999999999943
11
159.3861299999999801
21
-99.9412069999999915
0
LINE
8
BLACK
6
CONTINUOUS
10
159.3861299999999801
20
-99.9412069999999915
11
159.6362049999999897
21
-99.8742000000000019
0
LINE
8
BLACK
6
CONTINUOUS
10
159.6362049999999897
20
-99.8742000000000019
11
159.8753949999999975
21
-99.7751249999999885
0
LINE
8
BLACK
6
CONTINUOUS
10
159.8753949999999975
20
-99.7751249999999885
11
160.0996059999999943
21
-99.6456759999999946
0
LINE
8
BLACK
6
CONTINUOUS
10
160.0996059999999943
20
-99.6456759999999946
11
160.3050020000000018
21
-99.4880699999999933
0
LINE
8
BLACK
6
CONTINUOUS
10
160.3050020000000018
20
-99.4880699999999933
11
160.4880699999999933
21
-99.3050020000000018
0
LINE
8
BLACK
6
CONTINUOUS
10
160.4880699999999933
20
-99.3050020000000018
11
160.6456759999999804
21
-99.0996059999999943
0
LINE
8
BLACK
6
CONTINUOUS
10
160.6456759999999804
20
-99.0996059999999943
11
160.7751250000000027
21
-98.8753949999999975
0
LINE
8
BLACK
6
CONTINUOUS
10
160.7751250000000027
20
-98.8753949999999975
11
160.8742000000000019
21
-98.6362049999999897
0
LINE
8
BLACK
6
CONTINUOUS
10
160.8742000000000019
20
-98.6362049999999897
11
160.9412069999999915
21
-98.3861299999999943
0
LINE
8
BLACK
6
CONTINUOUS
10
160.9412069999999915
20
-98.3861299999999943
11
160.9749999999999943
21
-98.1294479999999965
0
LINE
8
BLACK
6
CONTINUOUS
10
160.9749999999999943
20
-98.1294479999999965
11
160.9749999999999943
21
-98.
0
LINE
8
BLACK
6
CONTINUOUS
10
160.9749999999999943
20
-98.
11
160.9749999999999943
21
-87.
0
LINE
8
BLACK
6
CONTINUOUS
10
160.9749999999999943
20
-87.
11
160.9749999999999943
21
-86.8705519999999893
0
LINE
8
BLACK
6
CONTINUOUS
10
160.9749999999999943
20
-86.8705519999999893
11
160.9412069999999915
21
-86.6138699999999915
0
LINE
8
BLACK
6
CONTINUOUS
10
160.9412069999999915
20
-86.6138699999999915
11
160.8742000000000019
21
-86.3637949999999961
0
LINE
8
BLACK
6
CONTINUOUS
10
160.8742000000000019
20
-86.3637949999999961
11
160.7751250000000027
21
-86.1246050000000025
0
LINE
8
BLACK
6
CONTINUOUS
10
160.7751250000000027
20
-86.1246050000000025
11
160.6456759999999804
21
-85.9003939999999915
0
LINE
8
BLACK
6
CONTINUOUS
10
160.6456759999999804
20
-85.9003939999999915
11
160.4880699999999933
21
-85.6949979999999982
0
LINE
8
BLACK
6
CONTINUOUS
10
160.4880699999999933
20
-85.6949979999999982
11
160.3050020000000018
21
-85.5119299999999924
0
LINE
8
BLACK
6
CONTINUOUS
10
160.3050020000000018
20
-85.5119299999999924
11
160.0996059999999943
21
-85.3543239999999912
0
LINE
8
BLACK
6
CONTINUOUS
10
160.0996059999999943
20
-85.3543239999999912
11
159.8753949999999975
21
-85.2248749999999973
0
LINE
8
BLACK
6
CONTINUOUS
10
159.8753949999999975
20
-85.2248749999999973
11
159.6362049999999897
21
-85.1257999999999981
0
LINE
8
BLACK
6
CONTINUOUS
10
159.6362049999999897
20
-85.1257999999999981
11
159.3861299999999801
21
-85.0587929999999943
0
LINE
8
BLACK
6
CONTINUOUS
10
159.3861299999999801
20
-85.0587929999999943
11
159.1294479999999965
21
-85.0249999999999915
0
LINE
8
BLACK
6
CONTINUOUS
10
159.1294479999999965
20
-85.0249999999999915
11
159.
21
-85.0249999999999915
0
LINE
8
BLACK
6
CONTINUOUS
10
159.
20
-85.0249999999999915
11
143.
21
-85.0249999999999915
0
CIRCLE
8
BLACK
10
143.
20
-89.
40
1.5999999999999999
0
CIRCLE
8
BLACK
10
143.
20
-95.
40
0.5
0
CIRCLE
8
BLACK
10
143.
20
-97.539999999999992
40
0.5
0
CIRCLE
8
BLACK
10
154.7999999999999829
20
-98.5499999999999972
40
1.1499999999999999
0
CIRCLE
8
BLACK
10
154.7999999999999829
20
-86.5499999999999972
40
1.1499999999999999
0
CIRCLE
8
BLACK
10
149.9599999999999795
20
-90.
40
0.45
0
CIRCLE
8
BLACK
10
152.5
20
-91.019999999999996
40
0.45
0
CIRCLE
8
BLACK
10
149.9599999999999795
20
-92.039999999999992
40
0.45
0
CIRCLE
8
BLACK
10
152.5
20
-93.0600000000000023
40
0.45
0
CIRCLE
8
BLACK
10
149.9599999999999795
20
-94.0799999999999983
40
0.45
0
CIRCLE
8
BLACK
10
152.5
20
-95.0999999999999943
40
0.45
0
CIRCLE
8
WHITE
10
143.
20
-89.
40
1.5999989999999999
0
CIRCLE
8
WHITE
10
143.
20
-95.
40
0.5
0
CIRCLE
8
WHITE
10
143.
20
-97.539999999999992
40
0.5
0
CIRCLE
8
WHITE
10
154.7999999999999829
20
-98.5499999999999972
40
1.149999
0
CIRCLE
8
WHITE
10
154.7999999999999829
20
-86.5499999999999972
40
1.149999
0
CIRCLE
8
WHITE
10
149.9599999999999795
20
-90.
40
0.45
0
CIRCLE
8
WHITE
10
152.5
20
-91.019999999999996
40
0.45
0
CIRCLE
8
WHITE
10
149.9599999999999795
20
-92.039999999999992
40
0.45
0
CIRCLE
8
WHITE
10
152.5
20
-93.0600000000000023
40
0.45
0
CIRCLE
8
WHITE
10
149.9599999999999795
20
-94.0799999999999983
40
0.45
0
CIRCLE
8
WHITE
10
152.5
20
-95.0999999999999943
40
0.45
  0
ENDSEC
  0
EOF
