<?xml version="1.0" encoding="UTF-8" standalone="no"?>
<svg
   version="1.1"
   width="22.050329mm"
   height="15.050118mm"
   viewBox="0 0 22.050329 15.050118"
   id="svg57"
   sodipodi:docname="NXT_touch_pcb-B_Cu.svg"
   inkscape:version="1.4 (86a8ad7, 2024-10-11)"
   xmlns:inkscape="http://www.inkscape.org/namespaces/inkscape"
   xmlns:sodipodi="http://sodipodi.sourceforge.net/DTD/sodipodi-0.dtd"
   xmlns="http://www.w3.org/2000/svg"
   xmlns:svg="http://www.w3.org/2000/svg"
   xmlns:rdf="http://www.w3.org/1999/02/22-rdf-syntax-ns#"
   xmlns:cc="http://creativecommons.org/ns#"
   xmlns:dc="http://purl.org/dc/elements/1.1/">
  <defs
     id="defs57" />
  <sodipodi:namedview
     id="namedview57"
     pagecolor="#505050"
     bordercolor="#eeeeee"
     borderopacity="1"
     inkscape:showpageshadow="0"
     inkscape:pageopacity="0"
     inkscape:pagecheckerboard="0"
     inkscape:deskcolor="#505050"
     inkscape:document-units="mm"
     inkscape:zoom="8.1337687"
     inkscape:cx="41.370737"
     inkscape:cy="35.346469"
     inkscape:window-width="1920"
     inkscape:window-height="1009"
     inkscape:window-x="-8"
     inkscape:window-y="-8"
     inkscape:window-maximized="1"
     inkscape:current-layer="svg57" />
  <title
     id="title1">SVG Image created as NXT_touch_pcb-B_Cu.svg date 2026/02/11 11:27:25 </title>
  <desc
     id="desc1">Image generated by PCBNEW </desc>
  <path
     id="path46-8"
     style="display:inline;fill:none;stroke:#ff0000;stroke-width:0.05;stroke-linecap:round;stroke-linejoin:round;stroke-opacity:1"
     d="m 2.025,15.025 a 2,2 0 0 1 -2,-2 m 22,0 a 2,2 0 0 1 -2,2 m -2,-15 h -16 m -2,2 a 2,2 0 0 1 2,-2 m 0,15 h 18 m -2,-15 a 4,4 0 0 1 4,4 m -22,-2 v 11 m 22,0 v -9"
     inkscape:label="CONTOUR" />
  <path
     id="path46-4"
     style="display:inline;fill:#000000;stroke:#000000;stroke-width:0.05;stroke-linecap:round;stroke-linejoin:round;stroke-opacity:1"
     d="m 18.02506,0.025 c 2.20914,0 4.00027,1.791133 4.00027,4.000272 v 8.999968 c 0,1.104569 -0.89582,1.999878 -2.00039,1.999878 H 2.025 c -1.10457,0 -1.99988,-0.895309 -1.99988,-1.999878 V 2.025394 C 0.02512,0.920825 0.92043,0.025 2.025,0.025 Z M 6.22526,0.424975 A 1.15,1.15 0 0 0 5.07495,1.574776 1.15,1.15 0 0 0 6.22526,2.725093 1.15,1.15 0 0 0 7.37506,1.574776 1.15,1.15 0 0 0 6.22526,0.424975 Z m 8.30699,0.47594 H 13.7323 l -0.0956,0.01912 -0.0811,0.05426 -0.0543,0.08113 -0.0191,0.0956 v 1.250053 l 5.2e-4,0.0036 v 5.17e-4 0.0026 l 0.14728,0.884184 0.003,0.0031 v 2.282032 l -0.97048,0.968933 -1.42007,-0.312126 -0.005,0.001 a 0.85000002,0.85000002 0 0 0 -0.17208,-0.02015 0.85000002,0.85000002 0 0 0 -0.85008,0.850077 0.85000002,0.85000002 0 0 0 0.0196,0.173116 l -5.2e-4,0.0041 v 5.17e-4 L 10.5036,8.467826 A 0.85000002,0.85000002 0 0 0 10.21525,9.104997 0.85000002,0.85000002 0 0 0 11.06533,9.955074 0.85000002,0.85000002 0 0 0 11.9154,9.104997 0.85000002,0.85000002 0 0 0 11.62653,8.467309 l 0.15142,-0.688846 0.96221,-0.211357 0.004,-0.0031 h 0.10697 a 0.5,0.5 0 0 0 0.031,-0.0031 0.5,0.5 0 0 0 0.045,-0.0047 0.5,0.5 0 0 0 0.0574,-0.01292 0.5,0.5 0 0 0 0.046,-0.01395 0.5,0.5 0 0 0 0.0563,-0.02739 0.5,0.5 0 0 0 0.0357,-0.0186 0.5,0.5 0 0 0 0.0822,-0.06563 l 1.28158,-1.279508 a 0.5,0.5 0 0 0 0.0749,-0.09767 0.5,0.5 0 0 0 0.0145,-0.03049 0.5,0.5 0 0 0 0.0336,-0.08165 0.5,0.5 0 0 0 0.0103,-0.04341 0.5,0.5 0 0 0 0.0103,-0.077 0.5,0.5 0 0 0 0.003,-0.02325 V 3.292384 l 5.2e-4,-0.001 0.14314,-0.859379 0.006,-0.03101 V 1.150942 l -0.0191,-0.0956 -0.0543,-0.08113 -0.0811,-0.05426 z m -3.10007,0 h -0.80047 l -0.0956,0.01912 -0.0811,0.05426 -0.0543,0.08113 -0.0191,0.0956 v 1.250053 l 0.0191,0.0956 0.002,0.0026 -5.2e-4,0.0016 v 0.0021 l 0.16071,0.789099 10e-4,10e-4 v 0.03617 l -0.002,0.0031 -0.34417,0.835608 v 0.0072 h -0.003 v 1.699638 h 1.70016 V 4.175155 h -0.005 l 10e-4,-0.0031 -10e-4,-0.0041 -0.34416,-0.835608 -0.002,-0.0021 v -0.03669 l 0.001,-0.0026 0.062,-0.475423 0.0517,-0.395325 0.004,-0.01912 V 1.151036 l -0.0191,-0.0956 -0.0543,-0.08113 -0.0811,-0.05426 z m 6.59288,1.523938 a 1.6,1.6 0 0 0 -1.5999,1.600419 1.6,1.6 0 0 0 1.5999,1.599903 1.6,1.6 0 0 0 1.5999,-1.599903 1.6,1.6 0 0 0 -1.5999,-1.600419 z M 11.06528,4.57511 a 0.44999999,0.44999999 0 0 1 0.44958,0.450101 0.44999999,0.44999999 0 0 1 -0.44958,0.449585 0.44999999,0.44999999 0 0 1 -0.4501,-0.449585 0.44999999,0.44999999 0 0 1 0.4501,-0.450101 z M 8.52486,5.195227 A 0.85000002,0.85000002 0 0 0 7.6753,6.044787 0.85000002,0.85000002 0 0 0 8.52486,6.894865 0.85000002,0.85000002 0 0 0 9.37494,6.044787 0.85000002,0.85000002 0 0 0 8.52486,5.195227 Z m 0,0.399975 A 0.44999999,0.44999999 0 0 1 8.97497,6.044787 0.44999999,0.44999999 0 0 1 8.52486,6.494889 0.44999999,0.44999999 0 0 1 8.07528,6.044787 0.44999999,0.44999999 0 0 1 8.52486,5.595202 Z m 2.54042,1.019576 A 0.44999999,0.44999999 0 0 1 11.51486,7.06488 0.44999999,0.44999999 0 0 1 11.06528,7.514982 0.44999999,0.44999999 0 0 1 10.61518,7.06488 0.44999999,0.44999999 0 0 1 11.06528,6.614778 Z M 8.52538,7.234896 H 8.52486 A 0.85000002,0.85000002 0 0 0 8.3533,7.255046 l -0.005,-0.001 -0.0413,0.0088 -1.45573,0.320394 -0.003,0.0026 H 5.02719 L 5.02219,7.58324 4.22689,7.429244 4.13129,7.410124 H 2.88124 l -0.0956,0.01912 -0.0811,0.05426 -0.0543,0.08113 -0.0191,0.0956 v 0.799951 l 0.0191,0.0956 0.0543,0.08113 0.0811,0.05426 0.0956,0.01912 h 1.25005 l 0.005,-0.001 h 5.2e-4 l 0.88418,-0.12299 10e-4,-5.17e-4 h 1.82572 l 0.003,0.0016 1.49706,0.328662 0.005,-10e-4 A 0.85000002,0.85000002 0 0 0 8.52485,8.9352 0.85000002,0.85000002 0 0 0 9.37493,8.085123 0.85000002,0.85000002 0 0 0 8.52537,7.235046 Z M 8.52486,7.634871 A 0.44999999,0.44999999 0 0 1 8.97497,8.084973 0.44999999,0.44999999 0 0 1 8.52486,8.535075 0.44999999,0.44999999 0 0 1 8.07528,8.084973 0.44999999,0.44999999 0 0 1 8.52486,7.634871 Z m 2.54042,1.020093 a 0.44999999,0.44999999 0 0 1 0.44958,0.450102 0.44999999,0.44999999 0 0 1 -0.44958,0.450101 0.44999999,0.44999999 0 0 1 -0.4501,-0.450101 0.44999999,0.44999999 0 0 1 0.4501,-0.450102 z m 8.05997,0.270268 h -2.20038 v 0.103352 l -0.003,-5.16e-4 -0.004,5.16e-4 -0.9865,0.492994 -0.003,0.0036 h -0.64286 a 0.5,0.5 0 0 0 -0.0651,-0.0041 h -1.0082 a 0.5,0.5 0 0 0 -0.19069,0.03824 0.5,0.5 0 0 1 -5.2e-4,0 0.5,0.5 0 0 0 -0.0832,0.04444 0.5,0.5 0 0 0 -0.006,0.0041 0.5,0.5 0 0 0 -0.0837,0.0708 l -0.85783,0.857829 H 9.83026 l -0.001,-0.0026 -0.58911,-0.868681 a 0.85000002,0.85000002 0 0 0 -0.002,-0.0026 L 9.23715,9.66209 A 0.85000002,0.85000002 0 0 0 8.52453,9.275033 0.85000002,0.85000002 0 0 0 7.67497,10.12511 0.85000002,0.85000002 0 0 0 8.36278,10.957618 l 0.006,0.0047 0.47232,0.185518 0.24237,0.242362 a 0.5,0.5 0 0 0 0.0925,0.0708 0.5,0.5 0 0 0 0.0315,0.01757 0.5,0.5 0 0 0 0.078,0.03256 0.5,0.5 0 0 0 0.0362,0.01085 0.5,0.5 0 0 0 0.10077,0.01292 0.5,0.5 0 0 0 0.0145,0.0026 h 3.75946 a 0.5,0.5 0 0 0 0.015,-0.0026 0.5,0.5 0 0 0 0.10077,-0.01292 0.5,0.5 0 0 0 0.0367,-0.01137 0.5,0.5 0 0 0 0.0765,-0.03152 0.5,0.5 0 0 0 0.0331,-0.01809 0.5,0.5 0 0 0 0.092,-0.0708 l 0.86971,-0.869197 h 0.74983 a 0.5,0.5 0 0 0 0.0403,0.0026 0.5,0.5 0 0 0 0.014,0.0016 h 0.70331 l 5.2e-4,0.001 0.003,0.0021 0.98599,0.492993 0.008,0.001 v 0.102836 h 2.20038 z m -1.10019,0.599963 a 0.5,0.5 0 0 1 0.50023,0.499711 0.5,0.5 0 0 1 -0.50023,0.500228 0.5,0.5 0 0 1 -0.49971,-0.500228 0.5,0.5 0 0 1 0.49971,-0.499711 z M 8.52486,9.675057 A 0.44999999,0.44999999 0 0 1 8.97497,10.125158 0.44999999,0.44999999 0 0 1 8.52486,10.57526 0.44999999,0.44999999 0 0 1 8.07528,10.125158 0.44999999,0.44999999 0 0 1 8.52486,9.675057 Z M 4.13082,10.510148 H 2.88025 l -0.0956,0.01912 -0.0811,0.05426 -0.0543,0.08113 -0.0191,0.0956 v 0.799951 l 0.0191,0.0956 0.0543,0.08113 0.0811,0.05426 0.0956,0.01912 H 4.1303 l 0.005,-10e-4 0.88418,-0.147794 0.003,-0.0016 h 1.69034 l 1.25935,1.257805 a 0.5,0.5 0 0 0 0.14831,0.09922 0.5,0.5 0 0 0 0.0233,0.01137 0.5,0.5 0 0 0 0.1664,0.03256 0.5,0.5 0 0 0 0.0155,0.0031 h 7.62486 v 5.17e-4 l 0.005,0.0031 1.54667,0.461988 a 1.1,1.1 0 0 0 0.52297,0.135392 1.1,1.1 0 0 0 1.10019,-1.100191 1.1,1.1 0 0 0 -1.10019,-1.099675 1.1,1.1 0 0 0 -0.53382,0.138493 l -1.53686,0.458887 -0.002,0.0015 H 8.5328 L 7.27344,10.806187 a 0.5,0.5 0 0 0 -0.0925,-0.0708 0.5,0.5 0 0 0 -0.0315,-0.01705 0.5,0.5 0 0 0 -0.0827,-0.03411 0.5,0.5 0 0 0 -0.0289,-0.0088 0.5,0.5 0 0 0 -0.11783,-0.0155 h -1.896 l -0.003,-0.0015 -0.88418,-0.147278 z m 13.89424,1.554944 a 0.5,0.5 0 0 1 0.50023,0.499711 0.5,0.5 0 0 1 -0.50023,0.500228 0.5,0.5 0 0 1 -0.49971,-0.500228 0.5,0.5 0 0 1 0.49971,-0.499711 z m -11.7998,0.360184 a 1.15,1.15 0 0 0 -1.15031,1.149801 1.15,1.15 0 0 0 1.15031,1.149801 1.15,1.15 0 0 0 1.1498,-1.149801 1.15,1.15 0 0 0 -1.1498,-1.149801 z M 6.47164,1.04394 C 7.2156,1.333172 6.6882,2.510337 5.97946,2.16894 5.26485,1.841252 5.74562,0.758543 6.47164,1.04394 Z m 11.89844,2.001953 c 1.04304,0.287773 0.89162,1.989 -0.19752,2.050903 C 17.12058,5.31134 16.5197,3.731775 17.42868,3.1748 17.70576,2.973827 18.04894,2.957888 18.37008,3.045893 Z M 6.4736,13.04394 c 0.72456,0.282856 0.24089,1.443749 -0.47071,1.125 -0.72076,-0.328941 -0.27864,-1.406613 0.47071,-1.125 z" />
  <metadata
     id="metadata66">
    <rdf:RDF>
      <cc:Work
         rdf:about="">
        <dc:title>SVG Image created as NXT_touch_pcb-B_Cu.svg date 2026/02/11 11:27:25 </dc:title>
      </cc:Work>
    </rdf:RDF>
  </metadata>
</svg>
