999
"DXF R12 Output" (www.mydxf.blogspot.com)
 0 
SECTION
 2 
HEADER
 9 
$ACADVER
 1 
AC1009
 9 
$EXTMIN
 10 
 0 
 20 
 0 
 9 
$EXTMAX
 10 
 8.5 
 20 
 11 
 0 
ENDSEC
 0 
SECTION
 2 
ENTITIES
0
LINE
8
BLACK
10
8.206793
20
5.058175
11
8.431793
21
5.447886
0
LINE
8
BLACK
10
8.431793
20
5.447886
11
8.881793
21
5.447886
0
LINE
8
BLACK
10
8.881793
20
5.447886
11
9.106793
21
5.058175
0
LINE
8
BLACK
10
9.106793
20
5.058175
11
8.881793
21
4.668463
0
LINE
8
BLACK
10
8.881793
20
4.668463
11
8.431793
21
4.668463
0
LINE
8
BLACK
10
8.431793
20
4.668463
11
8.206793
21
5.058175
0
LINE
8
BLACK
10
8.206793
20
5.058175
11
8.206793
21
5.058175
0
LINE
8
BLACK
10
10.746790
20
6.078195
11
10.878864
21
6.395894
0
LINE
8
BLACK
10
10.878864
20
6.395894
11
11.196788
21
6.527423
0
LINE
8
BLACK
10
11.196788
20
6.527423
11
11.514713
21
6.395894
0
LINE
8
BLACK
10
11.514713
20
6.395894
11
11.646787
21
6.078195
0
LINE
8
BLACK
10
11.646787
20
6.078195
11
11.514713
21
5.760496
0
LINE
8
BLACK
10
11.514713
20
5.760496
11
11.196788
21
5.628967
0
LINE
8
BLACK
10
11.196788
20
5.628967
11
10.878864
21
5.760496
0
LINE
8
BLACK
10
10.878864
20
5.760496
11
10.746790
21
6.078195
0
LINE
8
BLACK
10
10.746790
20
6.078195
11
10.746790
21
6.078195
0
LINE
8
BLACK
10
8.206793
20
7.098189
11
8.431793
21
7.487901
0
LINE
8
BLACK
10
8.431793
20
7.487901
11
8.881793
21
7.487901
0
LINE
8
BLACK
10
8.881793
20
7.487901
11
9.106793
21
7.098189
0
LINE
8
BLACK
10
9.106793
20
7.098189
11
8.881793
21
6.708478
0
LINE
8
BLACK
10
8.881793
20
6.708478
11
8.431793
21
6.708478
0
LINE
8
BLACK
10
8.431793
20
6.708478
11
8.206793
21
7.098189
0
LINE
8
BLACK
10
8.206793
20
7.098189
11
8.206793
21
7.098189
0
LINE
8
BLACK
10
10.746790
20
8.118183
11
10.878864
21
8.435882
0
LINE
8
BLACK
10
10.878864
20
8.435882
11
11.196788
21
8.567411
0
LINE
8
BLACK
10
11.196788
20
8.567411
11
11.514713
21
8.435882
0
LINE
8
BLACK
10
11.514713
20
8.435882
11
11.646787
21
8.118183
0
LINE
8
BLACK
10
11.646787
20
8.118183
11
11.514713
21
7.800484
0
LINE
8
BLACK
10
11.514713
20
7.800484
11
11.196788
21
7.668955
0
LINE
8
BLACK
10
11.196788
20
7.668955
11
10.878864
21
7.800484
0
LINE
8
BLACK
10
10.878864
20
7.800484
11
10.746790
21
8.118183
0
LINE
8
BLACK
10
10.746790
20
8.118183
11
10.746790
21
8.118183
0
LINE
8
BLACK
10
8.206793
20
9.138177
11
8.431793
21
9.527889
0
LINE
8
BLACK
10
8.431793
20
9.527889
11
8.881793
21
9.527889
0
LINE
8
BLACK
10
8.881793
20
9.527889
11
9.106793
21
9.138177
0
LINE
8
BLACK
10
9.106793
20
9.138177
11
8.881793
21
8.748465
0
LINE
8
BLACK
10
8.881793
20
8.748465
11
8.431793
21
8.748465
0
LINE
8
BLACK
10
8.431793
20
8.748465
11
8.206793
21
9.138177
0
LINE
8
BLACK
10
8.206793
20
9.138177
11
8.206793
21
9.138177
0
LINE
8
BLACK
10
10.746790
20
10.158171
11
10.878864
21
10.475870
0
LINE
8
BLACK
10
10.878864
20
10.475870
11
11.196788
21
10.607399
0
LINE
8
BLACK
10
11.196788
20
10.607399
11
11.514713
21
10.475870
0
LINE
8
BLACK
10
11.514713
20
10.475870
11
11.646787
21
10.158171
0
LINE
8
BLACK
10
11.646787
20
10.158171
11
11.514713
21
9.840472
0
LINE
8
BLACK
10
11.514713
20
9.840472
11
11.196788
21
9.708943
0
LINE
8
BLACK
10
11.196788
20
9.708943
11
10.878864
21
9.840472
0
LINE
8
BLACK
10
10.878864
20
9.840472
11
10.746790
21
10.158171
0
LINE
8
BLACK
10
10.746790
20
10.158171
11
10.746790
21
10.158171
0
LINE
8
BLACK
10
17.656779
20
2.618190
11
17.906779
21
3.051203
0
LINE
8
BLACK
10
17.906779
20
3.051203
11
18.406779
21
3.051203
0
LINE
8
BLACK
10
18.406779
20
3.051203
11
18.656779
21
2.618190
0
LINE
8
BLACK
10
18.656779
20
2.618190
11
18.406779
21
2.185178
0
LINE
8
BLACK
10
18.406779
20
2.185178
11
17.906779
21
2.185178
0
LINE
8
BLACK
10
17.906779
20
2.185178
11
17.656779
21
2.618190
0
LINE
8
BLACK
10
17.656779
20
2.618190
11
17.656779
21
2.618190
0
LINE
8
BLACK
10
17.656779
20
5.158187
11
17.906779
21
5.591200
0
LINE
8
BLACK
10
17.906779
20
5.591200
11
18.406779
21
5.591200
0
LINE
8
BLACK
10
18.406779
20
5.591200
11
18.656779
21
5.158187
0
LINE
8
BLACK
10
18.656779
20
5.158187
11
18.406779
21
4.725175
0
LINE
8
BLACK
10
18.406779
20
4.725175
11
17.906779
21
4.725175
0
LINE
8
BLACK
10
17.906779
20
4.725175
11
17.656779
21
5.158187
0
LINE
8
BLACK
10
17.656779
20
5.158187
11
17.656779
21
5.158187
0
LINE
8
BLACK
10
6.442725
20
14.755168
11
6.862246
21
14.641575
0
LINE
8
BLACK
10
6.862246
20
14.641575
11
7.199919
21
14.390404
0
LINE
8
BLACK
10
7.199919
20
14.390404
11
7.425000
21
14.034808
0
LINE
8
BLACK
10
7.425000
20
14.034808
11
7.506741
21
13.607936
0
LINE
8
BLACK
10
7.506741
20
13.607936
11
7.416363
21
13.160282
0
LINE
8
BLACK
10
7.416363
20
13.160282
11
7.169896
21
12.794723
0
LINE
8
BLACK
10
7.169896
20
12.794723
11
6.804337
21
12.548256
0
LINE
8
BLACK
10
6.804337
20
12.548256
11
6.356683
21
12.457879
0
LINE
8
BLACK
10
6.356683
20
12.457879
11
5.909029
21
12.548256
0
LINE
8
BLACK
10
5.909029
20
12.548256
11
5.543469
21
12.794723
0
LINE
8
BLACK
10
5.543469
20
12.794723
11
5.297002
21
13.160282
0
LINE
8
BLACK
10
5.297002
20
13.160282
11
5.206625
21
13.607936
0
LINE
8
BLACK
10
5.206625
20
13.607936
11
5.302456
21
14.067993
0
LINE
8
BLACK
10
5.302456
20
14.067993
11
5.574317
21
14.451304
0
LINE
8
BLACK
10
5.574317
20
14.451304
11
5.976810
21
14.693864
0
LINE
8
BLACK
10
5.976810
20
14.693864
11
6.442725
21
14.755168
0
LINE
8
BLACK
10
6.442725
20
14.755168
11
6.442725
21
14.755168
0
LINE
8
BLACK
10
18.276097
20
12.753730
11
18.859735
21
12.595773
0
LINE
8
BLACK
10
18.859735
20
12.595773
11
19.329550
21
12.246428
0
LINE
8
BLACK
10
19.329550
20
12.246428
11
19.642770
21
11.751796
0
LINE
8
BLACK
10
19.642770
20
11.751796
11
19.756624
21
11.157977
0
LINE
8
BLACK
10
19.756624
20
11.157977
11
19.625848
21
10.540879
0
LINE
8
BLACK
10
19.625848
20
10.540879
11
19.281826
21
10.038051
0
LINE
8
BLACK
10
19.281826
20
10.038051
11
18.775229
21
9.699605
0
LINE
8
BLACK
10
18.775229
20
9.699605
11
18.156724
21
9.575654
0
LINE
8
BLACK
10
18.156724
20
9.575654
11
17.538218
21
9.699605
0
LINE
8
BLACK
10
17.538218
20
9.699605
11
17.031621
21
10.038051
0
LINE
8
BLACK
10
17.031621
20
10.038051
11
16.687599
21
10.540879
0
LINE
8
BLACK
10
16.687599
20
10.540879
11
16.556823
21
11.157977
0
LINE
8
BLACK
10
16.556823
20
11.157977
11
16.690232
21
11.797801
0
LINE
8
BLACK
10
16.690232
20
11.797801
11
17.068363
21
12.330896
0
LINE
8
BLACK
10
17.068363
20
12.330896
11
17.628119
21
12.668306
0
LINE
8
BLACK
10
17.628119
20
12.668306
11
18.276097
21
12.753730
0
LINE
8
BLACK
10
18.276097
20
12.753730
11
18.276097
21
12.753730
0
LINE
8
BLACK
10
6.442725
20
2.754874
11
6.862121
21
2.641341
0
LINE
8
BLACK
10
6.862121
20
2.641341
11
7.199739
21
2.390304
0
LINE
8
BLACK
10
7.199739
20
2.390304
11
7.424854
21
2.034876
0
LINE
8
BLACK
10
7.424854
20
2.034876
11
7.506741
21
1.608171
0
LINE
8
BLACK
10
7.506741
20
1.608171
11
7.416363
21
1.160517
0
LINE
8
BLACK
10
7.416363
20
1.160517
11
7.169896
21
0.794958
0
LINE
8
BLACK
10
7.169896
20
0.794958
11
6.804337
21
0.548491
0
LINE
8
BLACK
10
6.804337
20
0.548491
11
6.356683
21
0.458114
0
LINE
8
BLACK
10
6.356683
20
0.458114
11
5.909029
21
0.548491
0
LINE
8
BLACK
10
5.909029
20
0.548491
11
5.543469
21
0.794958
0
LINE
8
BLACK
10
5.543469
20
0.794958
11
5.297002
21
1.160517
0
LINE
8
BLACK
10
5.297002
20
1.160517
11
5.206625
21
1.608171
0
LINE
8
BLACK
10
5.206625
20
1.608171
11
5.302615
21
2.068062
0
LINE
8
BLACK
10
5.302615
20
2.068062
11
5.574511
21
2.451190
0
LINE
8
BLACK
10
5.574511
20
2.451190
11
5.976934
21
2.693613
0
LINE
8
BLACK
10
5.976934
20
2.693613
11
6.442725
21
2.754874
0
LINE
8
BLACK
10
6.442725
20
2.754874
11
6.442725
21
2.754874
0
LINE
8
BLACK
10
10.763919
20
14.282279
11
10.668140
21
14.263758
0
LINE
8
BLACK
10
11.563753
20
14.282279
11
10.763919
21
14.282279
0
LINE
8
BLACK
10
11.659532
20
14.263758
11
11.563753
21
14.282279
0
LINE
8
BLACK
10
11.740494
20
14.208196
11
11.659532
21
14.263758
0
LINE
8
BLACK
10
11.794734
20
14.128821
11
11.740494
21
14.208196
0
LINE
8
BLACK
10
11.813784
20
14.030925
11
11.794734
21
14.128821
0
LINE
8
BLACK
10
11.813784
20
12.782093
11
11.813784
21
14.030925
0
LINE
8
BLACK
10
11.812726
20
12.776802
11
11.813784
21
12.782093
0
LINE
8
BLACK
10
11.812990
20
12.776802
11
11.812726
21
12.776802
0
LINE
8
BLACK
10
11.760074
20
12.366698
11
11.812990
21
12.776802
0
LINE
8
BLACK
10
11.698161
20
11.893095
11
11.760074
21
12.366698
0
LINE
8
BLACK
10
11.696838
20
11.890449
11
11.698161
21
11.893095
0
LINE
8
BLACK
10
11.696838
20
11.853407
11
11.696838
21
11.890449
0
LINE
8
BLACK
10
11.699749
20
11.850761
11
11.696838
21
11.853407
0
LINE
8
BLACK
10
12.043707
20
11.014679
11
11.699749
21
11.850761
0
LINE
8
BLACK
10
12.044765
20
11.012033
11
12.043707
21
11.014679
0
LINE
8
BLACK
10
12.043442
20
11.009387
11
12.044765
21
11.012033
0
LINE
8
BLACK
10
12.046882
20
11.009387
11
12.043442
21
11.009387
0
LINE
8
BLACK
10
12.046882
20
9.308119
11
12.046882
21
11.009387
0
LINE
8
BLACK
10
10.346671
20
9.308119
11
12.046882
21
9.308119
0
LINE
8
BLACK
10
10.346671
20
11.009387
11
10.346671
21
9.308119
0
LINE
8
BLACK
10
10.349846
20
11.009387
11
10.346671
21
11.009387
0
LINE
8
BLACK
10
10.349846
20
11.014679
11
10.349846
21
11.009387
0
LINE
8
BLACK
10
10.693804
20
11.850761
11
10.349846
21
11.014679
0
LINE
8
BLACK
10
10.696450
20
11.856053
11
10.693804
21
11.850761
0
LINE
8
BLACK
10
10.696715
20
11.856053
11
10.696450
21
11.856053
0
LINE
8
BLACK
10
10.696715
20
11.887803
11
10.696715
21
11.856053
0
LINE
8
BLACK
10
10.694862
20
11.890449
11
10.696715
21
11.887803
0
LINE
8
BLACK
10
10.533996
20
12.681552
11
10.694862
21
11.890449
0
LINE
8
BLACK
10
10.533731
20
12.681552
11
10.533996
21
12.681552
0
LINE
8
BLACK
10
10.534525
20
12.684198
11
10.533731
21
12.681552
0
LINE
8
BLACK
10
10.532938
20
12.686844
11
10.534525
21
12.684198
0
LINE
8
BLACK
10
10.513888
20
12.782093
11
10.532938
21
12.686844
0
LINE
8
BLACK
10
10.513888
20
14.030925
11
10.513888
21
12.782093
0
LINE
8
BLACK
10
10.532938
20
14.128821
11
10.513888
21
14.030925
0
LINE
8
BLACK
10
10.587177
20
14.208196
11
10.532938
21
14.128821
0
LINE
8
BLACK
10
10.668140
20
14.263758
11
10.587177
21
14.208196
0
LINE
8
BLACK
10
8.573436
20
9.982805
11
8.409924
21
9.951055
0
LINE
8
BLACK
10
8.740123
20
9.982805
11
8.573436
21
9.982805
0
LINE
8
BLACK
10
8.903636
20
9.951055
11
8.740123
21
9.982805
0
LINE
8
BLACK
10
9.057358
20
9.887555
11
8.903636
21
9.951055
0
LINE
8
BLACK
10
9.196000
20
9.794951
11
9.057358
21
9.887555
0
LINE
8
BLACK
10
9.313739
20
9.678535
11
9.196000
21
9.794951
0
LINE
8
BLACK
10
9.406343
20
9.538306
11
9.313739
21
9.678535
0
LINE
8
BLACK
10
9.470108
20
9.384848
11
9.406343
21
9.538306
0
LINE
8
BLACK
10
9.502651
20
9.220806
11
9.470108
21
9.384848
0
LINE
8
BLACK
10
9.502651
20
9.054119
11
9.502651
21
9.220806
0
LINE
8
BLACK
10
9.470108
20
8.892723
11
9.502651
21
9.054119
0
LINE
8
BLACK
10
9.406343
20
8.736619
11
9.470108
21
8.892723
0
LINE
8
BLACK
10
9.313739
20
8.599036
11
9.406343
21
8.736619
0
LINE
8
BLACK
10
9.196000
20
8.479974
11
9.313739
21
8.599036
0
LINE
8
BLACK
10
9.057358
20
8.387370
11
9.196000
21
8.479974
0
LINE
8
BLACK
10
8.903636
20
8.323870
11
9.057358
21
8.387370
0
LINE
8
BLACK
10
8.740123
20
8.292120
11
8.903636
21
8.323870
0
LINE
8
BLACK
10
8.573436
20
8.292120
11
8.740123
21
8.292120
0
LINE
8
BLACK
10
8.409924
20
8.323870
11
8.573436
21
8.292120
0
LINE
8
BLACK
10
8.256201
20
8.387370
11
8.409924
21
8.323870
0
LINE
8
BLACK
10
8.117559
20
8.479974
11
8.256201
21
8.387370
0
LINE
8
BLACK
10
7.999820
20
8.599036
11
8.117559
21
8.479974
0
LINE
8
BLACK
10
7.907216
20
8.736619
11
7.999820
21
8.599036
0
LINE
8
BLACK
10
7.843451
20
8.892723
11
7.907216
21
8.736619
0
LINE
8
BLACK
10
7.810908
20
9.054119
11
7.843451
21
8.892723
0
LINE
8
BLACK
10
7.810908
20
9.220806
11
7.810908
21
9.054119
0
LINE
8
BLACK
10
7.843451
20
9.384848
11
7.810908
21
9.220806
0
LINE
8
BLACK
10
7.907216
20
9.538306
11
7.843451
21
9.384848
0
LINE
8
BLACK
10
7.999820
20
9.678535
11
7.907216
21
9.538306
0
LINE
8
BLACK
10
8.117559
20
9.794951
11
7.999820
21
9.678535
0
LINE
8
BLACK
10
8.256201
20
9.887555
11
8.117559
21
9.794951
0
LINE
8
BLACK
10
8.409924
20
9.951055
11
8.256201
21
9.887555
0
LINE
8
BLACK
10
8.573436
20
7.942870
11
8.488505
21
7.926995
0
LINE
8
BLACK
10
8.740123
20
7.942870
11
8.573436
21
7.942870
0
LINE
8
BLACK
10
8.903636
20
7.911120
11
8.740123
21
7.942870
0
LINE
8
BLACK
10
9.057358
20
7.847620
11
8.903636
21
7.911120
0
LINE
8
BLACK
10
9.196000
20
7.755016
11
9.057358
21
7.847620
0
LINE
8
BLACK
10
9.313739
20
7.638600
11
9.196000
21
7.755016
0
LINE
8
BLACK
10
9.406343
20
7.498371
11
9.313739
21
7.638600
0
LINE
8
BLACK
10
9.470108
20
7.344913
11
9.406343
21
7.498371
0
LINE
8
BLACK
10
9.502651
20
7.180871
11
9.470108
21
7.344913
0
LINE
8
BLACK
10
9.502651
20
7.014184
11
9.502651
21
7.180871
0
LINE
8
BLACK
10
9.470108
20
6.850143
11
9.502651
21
7.014184
0
LINE
8
BLACK
10
9.406343
20
6.696684
11
9.470108
21
6.850143
0
LINE
8
BLACK
10
9.313739
20
6.559101
11
9.406343
21
6.696684
0
LINE
8
BLACK
10
9.196000
20
6.440039
11
9.313739
21
6.559101
0
LINE
8
BLACK
10
9.057358
20
6.347435
11
9.196000
21
6.440039
0
LINE
8
BLACK
10
8.903636
20
6.283935
11
9.057358
21
6.347435
0
LINE
8
BLACK
10
8.740123
20
6.252185
11
8.903636
21
6.283935
0
LINE
8
BLACK
10
8.573436
20
6.252185
11
8.740123
21
6.252185
0
LINE
8
BLACK
10
8.488505
20
6.268060
11
8.573436
21
6.252185
0
LINE
8
BLACK
10
8.488240
20
6.268060
11
8.488505
21
6.268060
0
LINE
8
BLACK
10
8.479244
20
6.268060
11
8.488240
21
6.268060
0
LINE
8
BLACK
10
6.982234
20
6.596143
11
8.479244
21
6.268060
0
LINE
8
BLACK
10
6.978530
20
6.598789
11
6.982234
21
6.596143
0
LINE
8
BLACK
10
5.154759
20
6.598789
11
6.978530
21
6.598789
0
LINE
8
BLACK
10
5.152378
20
6.596143
11
5.154759
21
6.598789
0
LINE
8
BLACK
10
4.268406
20
6.474435
11
5.152378
21
6.596143
0
LINE
8
BLACK
10
4.266554
20
6.474435
11
4.268406
21
6.474435
0
LINE
8
BLACK
10
4.266289
20
6.474435
11
4.266554
21
6.474435
0
LINE
8
BLACK
10
4.262321
20
6.471789
11
4.266289
21
6.474435
0
LINE
8
BLACK
10
3.012430
20
6.471789
11
4.262321
21
6.471789
0
LINE
8
BLACK
10
2.916651
20
6.492956
11
3.012430
21
6.471789
0
LINE
8
BLACK
10
2.835689
20
6.545872
11
2.916651
21
6.492956
0
LINE
8
BLACK
10
2.781450
20
6.627893
11
2.835689
21
6.545872
0
LINE
8
BLACK
10
2.762400
20
6.723143
11
2.781450
21
6.627893
0
LINE
8
BLACK
10
2.762400
20
7.522183
11
2.762400
21
6.723143
0
LINE
8
BLACK
10
2.781450
20
7.617433
11
2.762400
21
7.522183
0
LINE
8
BLACK
10
2.835689
20
7.699454
11
2.781450
21
7.617433
0
LINE
8
BLACK
10
2.916651
20
7.755016
11
2.835689
21
7.699454
0
LINE
8
BLACK
10
3.012430
20
7.773537
11
2.916651
21
7.755016
0
LINE
8
BLACK
10
4.262321
20
7.773537
11
3.012430
21
7.773537
0
LINE
8
BLACK
10
4.323704
20
7.760308
11
4.262321
21
7.773537
0
LINE
8
BLACK
10
4.323704
20
7.760308
11
4.323704
21
7.760308
0
LINE
8
BLACK
10
5.152907
20
7.598912
11
4.323704
21
7.760308
0
LINE
8
BLACK
10
5.156347
20
7.598912
11
5.152907
21
7.598912
0
LINE
8
BLACK
10
6.979323
20
7.598912
11
5.156347
21
7.598912
0
LINE
8
BLACK
10
6.982234
20
7.598912
11
6.979323
21
7.598912
0
LINE
8
BLACK
10
8.437705
20
7.919058
11
6.982234
21
7.598912
0
LINE
8
BLACK
10
8.479244
20
7.929641
11
8.437705
21
7.919058
0
LINE
8
BLACK
10
8.479509
20
7.929641
11
8.479244
21
7.929641
0
LINE
8
BLACK
10
8.488240
20
7.926995
11
8.479509
21
7.929641
0
LINE
8
BLACK
10
8.488505
20
7.926995
11
8.488240
21
7.926995
0
LINE
8
BLACK
10
13.863773
20
14.282279
11
13.768259
21
14.263758
0
LINE
8
BLACK
10
14.663872
20
14.282279
11
13.863773
21
14.282279
0
LINE
8
BLACK
10
14.759387
20
14.263758
11
14.663872
21
14.282279
0
LINE
8
BLACK
10
14.840613
20
14.208196
11
14.759387
21
14.263758
0
LINE
8
BLACK
10
14.894853
20
14.128821
11
14.840613
21
14.208196
0
LINE
8
BLACK
10
14.913903
20
14.030925
11
14.894853
21
14.128821
0
LINE
8
BLACK
10
14.913903
20
12.782093
11
14.913903
21
14.030925
0
LINE
8
BLACK
10
14.912580
20
12.776802
11
14.913903
21
12.782093
0
LINE
8
BLACK
10
14.912845
20
12.776802
11
14.912580
21
12.776802
0
LINE
8
BLACK
10
14.765472
20
11.893095
11
14.912845
21
12.776802
0
LINE
8
BLACK
10
14.763884
20
11.887803
11
14.765472
21
11.893095
0
LINE
8
BLACK
10
14.763884
20
9.398077
11
14.763884
21
11.887803
0
LINE
8
BLACK
10
14.759651
20
9.334577
11
14.763884
21
9.398077
0
LINE
8
BLACK
10
14.759651
20
9.334577
11
14.759651
21
9.334577
0
LINE
8
BLACK
10
14.729489
20
9.220806
11
14.759651
21
9.334577
0
LINE
8
BLACK
10
14.725784
20
9.207577
11
14.729489
21
9.220806
0
LINE
8
BLACK
10
14.660432
20
9.093806
11
14.725784
21
9.207577
0
LINE
8
BLACK
10
14.660432
20
9.093806
11
14.660432
21
9.093806
0
LINE
8
BLACK
10
14.617305
20
9.046181
11
14.660432
21
9.093806
0
LINE
8
BLACK
10
13.336459
20
7.765600
11
14.617305
21
9.046181
0
LINE
8
BLACK
10
13.287247
20
7.720621
11
13.336459
21
7.765600
0
LINE
8
BLACK
10
13.287247
20
7.720621
11
13.287247
21
7.720621
0
LINE
8
BLACK
10
13.174005
20
7.657121
11
13.287247
21
7.720621
0
LINE
8
BLACK
10
13.147547
20
7.649183
11
13.174005
21
7.657121
0
LINE
8
BLACK
10
13.048064
20
7.622725
11
13.147547
21
7.649183
0
LINE
8
BLACK
10
13.048064
20
7.622725
11
13.048064
21
7.622725
0
LINE
8
BLACK
10
12.982712
20
7.617433
11
13.048064
21
7.622725
0
LINE
8
BLACK
10
12.874233
20
7.617433
11
12.982712
21
7.617433
0
LINE
8
BLACK
10
12.871322
20
7.617433
11
12.874233
21
7.617433
0
LINE
8
BLACK
10
11.910092
20
7.405767
11
12.871322
21
7.617433
0
LINE
8
BLACK
10
11.757957
20
6.712559
11
11.910092
21
7.405767
0
LINE
8
BLACK
10
11.853736
20
6.617310
11
11.757957
21
6.712559
0
LINE
8
BLACK
10
11.946340
20
6.479726
11
11.853736
21
6.617310
0
LINE
8
BLACK
10
12.010105
20
6.323622
11
11.946340
21
6.479726
0
LINE
8
BLACK
10
12.042648
20
6.162227
11
12.010105
21
6.323622
0
LINE
8
BLACK
10
12.042648
20
5.995539
11
12.042648
21
6.162227
0
LINE
8
BLACK
10
12.010105
20
5.831498
11
12.042648
21
5.995539
0
LINE
8
BLACK
10
11.946340
20
5.678040
11
12.010105
21
5.831498
0
LINE
8
BLACK
10
11.853736
20
5.537811
11
11.946340
21
5.678040
0
LINE
8
BLACK
10
11.735997
20
5.421394
11
11.853736
21
5.537811
0
LINE
8
BLACK
10
11.597355
20
5.328790
11
11.735997
21
5.421394
0
LINE
8
BLACK
10
11.443632
20
5.265290
11
11.597355
21
5.328790
0
LINE
8
BLACK
10
11.280120
20
5.233540
11
11.443632
21
5.265290
0
LINE
8
BLACK
10
11.113433
20
5.233540
11
11.280120
21
5.233540
0
LINE
8
BLACK
10
10.949920
20
5.265290
11
11.113433
21
5.233540
0
LINE
8
BLACK
10
10.796198
20
5.328790
11
10.949920
21
5.265290
0
LINE
8
BLACK
10
10.657556
20
5.421394
11
10.796198
21
5.328790
0
LINE
8
BLACK
10
10.539817
20
5.537811
11
10.657556
21
5.421394
0
LINE
8
BLACK
10
10.447213
20
5.678040
11
10.539817
21
5.537811
0
LINE
8
BLACK
10
10.383448
20
5.831498
11
10.447213
21
5.678040
0
LINE
8
BLACK
10
10.350905
20
5.995539
11
10.383448
21
5.831498
0
LINE
8
BLACK
10
10.350905
20
6.162227
11
10.350905
21
5.995539
0
LINE
8
BLACK
10
10.383448
20
6.323622
11
10.350905
21
6.162227
0
LINE
8
BLACK
10
10.447213
20
6.479726
11
10.383448
21
6.323622
0
LINE
8
BLACK
10
10.539817
20
6.617310
11
10.447213
21
6.479726
0
LINE
8
BLACK
10
10.635596
20
6.712559
11
10.539817
21
6.617310
0
LINE
8
BLACK
10
10.365721
20
7.940225
11
10.635596
21
6.712559
0
LINE
8
BLACK
10
10.365721
20
7.940225
11
10.365721
21
7.940225
0
LINE
8
BLACK
10
10.367309
20
7.950808
11
10.365721
21
7.940225
0
LINE
8
BLACK
10
10.367838
20
7.950808
11
10.367309
21
7.950808
0
LINE
8
BLACK
10
10.350905
20
8.035474
11
10.367838
21
7.950808
0
LINE
8
BLACK
10
10.350905
20
8.202162
11
10.350905
21
8.035474
0
LINE
8
BLACK
10
10.383448
20
8.366203
11
10.350905
21
8.202162
0
LINE
8
BLACK
10
10.447213
20
8.519661
11
10.383448
21
8.366203
0
LINE
8
BLACK
10
10.539817
20
8.657244
11
10.447213
21
8.519661
0
LINE
8
BLACK
10
10.657556
20
8.776307
11
10.539817
21
8.657244
0
LINE
8
BLACK
10
10.796198
20
8.868911
11
10.657556
21
8.776307
0
LINE
8
BLACK
10
10.949920
20
8.932411
11
10.796198
21
8.868911
0
LINE
8
BLACK
10
11.113433
20
8.964161
11
10.949920
21
8.932411
0
LINE
8
BLACK
10
11.280120
20
8.964161
11
11.113433
21
8.964161
0
LINE
8
BLACK
10
11.365051
20
8.948286
11
11.280120
21
8.964161
0
LINE
8
BLACK
10
11.365316
20
8.948286
11
11.365051
21
8.948286
0
LINE
8
BLACK
10
11.374312
20
8.948286
11
11.365316
21
8.948286
0
LINE
8
BLACK
10
12.794593
20
8.636078
11
11.374312
21
8.948286
0
LINE
8
BLACK
10
13.763761
20
9.607097
11
12.794593
21
8.636078
0
LINE
8
BLACK
10
13.763761
20
11.890449
11
13.763761
21
9.607097
0
LINE
8
BLACK
10
13.762173
20
11.893095
11
13.763761
21
11.890449
0
LINE
8
BLACK
10
13.614800
20
12.776802
11
13.762173
21
11.893095
0
LINE
8
BLACK
10
13.614800
20
12.776802
11
13.614800
21
12.776802
0
LINE
8
BLACK
10
13.613742
20
12.782093
11
13.614800
21
12.776802
0
LINE
8
BLACK
10
13.613742
20
14.030925
11
13.613742
21
12.782093
0
LINE
8
BLACK
10
13.632792
20
14.128821
11
13.613742
21
14.030925
0
LINE
8
BLACK
10
13.687032
20
14.208196
11
13.632792
21
14.128821
0
LINE
8
BLACK
10
13.768259
20
14.263758
11
13.687032
21
14.208196
0
LINE
8
BLACK
10
17.056761
20
6.257477
11
17.056761
21
6.154289
0
LINE
8
BLACK
10
19.256768
20
6.257477
11
17.056761
21
6.257477
0
LINE
8
BLACK
10
19.256768
20
4.058792
11
19.256768
21
6.257477
0
LINE
8
BLACK
10
17.056761
20
4.058792
11
19.256768
21
4.058792
0
LINE
8
BLACK
10
17.056761
20
4.161979
11
17.056761
21
4.058792
0
LINE
8
BLACK
10
17.049617
20
4.161979
11
17.056761
21
4.161979
0
LINE
8
BLACK
10
16.063252
20
4.654104
11
17.049617
21
4.161979
0
LINE
8
BLACK
10
16.060341
20
4.656749
11
16.063252
21
4.654104
0
LINE
8
BLACK
10
16.059812
20
4.659395
11
16.060341
21
4.656749
0
LINE
8
BLACK
10
15.356815
20
4.659395
11
16.059812
21
4.659395
0
LINE
8
BLACK
10
15.295696
20
4.662041
11
15.356815
21
4.659395
0
LINE
8
BLACK
10
14.551953
20
4.662041
11
15.295696
21
4.662041
0
LINE
8
BLACK
10
13.682269
20
3.791563
11
14.551953
21
4.662041
0
LINE
8
BLACK
10
13.633057
20
3.749230
11
13.682269
21
3.791563
0
LINE
8
BLACK
10
13.633057
20
3.749230
11
13.633057
21
3.749230
0
LINE
8
BLACK
10
13.520080
20
3.683084
11
13.633057
21
3.749230
0
LINE
8
BLACK
10
13.394138
20
3.651334
11
13.520080
21
3.683084
0
LINE
8
BLACK
10
13.394138
20
3.651334
11
13.394138
21
3.651334
0
LINE
8
BLACK
10
13.328786
20
3.646042
11
13.394138
21
3.651334
0
LINE
8
BLACK
10
9.568797
20
3.646042
11
13.328786
21
3.646042
0
LINE
8
BLACK
10
9.503445
20
3.651334
11
9.568797
21
3.646042
0
LINE
8
BLACK
10
9.503445
20
3.651334
11
9.503445
21
3.651334
0
LINE
8
BLACK
10
9.377504
20
3.683084
11
9.503445
21
3.651334
0
LINE
8
BLACK
10
9.264527
20
3.749230
11
9.377504
21
3.683084
0
LINE
8
BLACK
10
9.264527
20
3.749230
11
9.264527
21
3.749230
0
LINE
8
BLACK
10
9.215314
20
3.791563
11
9.264527
21
3.749230
0
LINE
8
BLACK
10
8.972692
20
4.034979
11
9.215314
21
3.791563
0
LINE
8
BLACK
10
8.500146
20
4.220188
11
8.972692
21
4.034979
0
LINE
8
BLACK
10
8.494590
20
4.225479
11
8.500146
21
4.220188
0
LINE
8
BLACK
10
8.494061
20
4.228125
11
8.494590
21
4.225479
0
LINE
8
BLACK
10
8.409924
20
4.244000
11
8.494061
21
4.228125
0
LINE
8
BLACK
10
8.256201
20
4.307500
11
8.409924
21
4.244000
0
LINE
8
BLACK
10
8.117559
20
4.400104
11
8.256201
21
4.307500
0
LINE
8
BLACK
10
7.999820
20
4.519166
11
8.117559
21
4.400104
0
LINE
8
BLACK
10
7.907216
20
4.656749
11
7.999820
21
4.519166
0
LINE
8
BLACK
10
7.843451
20
4.810208
11
7.907216
21
4.656749
0
LINE
8
BLACK
10
7.810908
20
4.974249
11
7.843451
21
4.810208
0
LINE
8
BLACK
10
7.810908
20
5.140936
11
7.810908
21
4.974249
0
LINE
8
BLACK
10
7.843451
20
5.304978
11
7.810908
21
5.140936
0
LINE
8
BLACK
10
7.907216
20
5.458436
11
7.843451
21
5.304978
0
LINE
8
BLACK
10
7.999820
20
5.598665
11
7.907216
21
5.458436
0
LINE
8
BLACK
10
8.117559
20
5.715081
11
7.999820
21
5.598665
0
LINE
8
BLACK
10
8.256201
20
5.807686
11
8.117559
21
5.715081
0
LINE
8
BLACK
10
8.409924
20
5.871185
11
8.256201
21
5.807686
0
LINE
8
BLACK
10
8.573436
20
5.902935
11
8.409924
21
5.871185
0
LINE
8
BLACK
10
8.740123
20
5.902935
11
8.573436
21
5.902935
0
LINE
8
BLACK
10
8.903636
20
5.871185
11
8.740123
21
5.902935
0
LINE
8
BLACK
10
9.057358
20
5.807686
11
8.903636
21
5.871185
0
LINE
8
BLACK
10
9.196000
20
5.715081
11
9.057358
21
5.807686
0
LINE
8
BLACK
10
9.313739
20
5.598665
11
9.196000
21
5.715081
0
LINE
8
BLACK
10
9.361893
20
5.524582
11
9.313739
21
5.598665
0
LINE
8
BLACK
10
9.362687
20
5.524582
11
9.361893
21
5.524582
0
LINE
8
BLACK
10
9.370095
20
5.521936
11
9.362687
21
5.524582
0
LINE
8
BLACK
10
9.960645
20
4.648812
11
9.370095
21
5.521936
0
LINE
8
BLACK
10
9.961703
20
4.646166
11
9.960645
21
4.648812
0
LINE
8
BLACK
10
13.121618
20
4.646166
11
9.961703
21
4.646166
0
LINE
8
BLACK
10
13.991302
20
5.516644
11
13.121618
21
4.646166
0
LINE
8
BLACK
10
14.040514
20
5.558978
11
13.991302
21
5.516644
0
LINE
8
BLACK
10
14.040514
20
5.558978
11
14.040514
21
5.558978
0
LINE
8
BLACK
10
14.153491
20
5.625123
11
14.040514
21
5.558978
0
LINE
8
BLACK
10
14.279433
20
5.656873
11
14.153491
21
5.625123
0
LINE
8
BLACK
10
14.279433
20
5.656873
11
14.279433
21
5.656873
0
LINE
8
BLACK
10
14.344785
20
5.662165
11
14.279433
21
5.656873
0
LINE
8
BLACK
10
15.352846
20
5.662165
11
14.344785
21
5.662165
0
LINE
8
BLACK
10
15.413700
20
5.656873
11
15.352846
21
5.662165
0
LINE
8
BLACK
10
16.060341
20
5.656873
11
15.413700
21
5.656873
0
LINE
8
BLACK
10
16.063252
20
5.662165
11
16.060341
21
5.656873
0
LINE
8
BLACK
10
17.049617
20
6.154289
11
16.063252
21
5.662165
0
LINE
8
BLACK
10
17.054379
20
6.156935
11
17.049617
21
6.154289
0
LINE
8
BLACK
10
17.056761
20
6.154289
11
17.054379
21
6.156935
0
LINE
8
BLACK
10
3.012430
20
4.672624
11
2.916651
21
4.654104
0
LINE
8
BLACK
10
4.262321
20
4.672624
11
3.012430
21
4.672624
0
LINE
8
BLACK
10
4.268141
20
4.672624
11
4.262321
21
4.672624
0
LINE
8
BLACK
10
4.268406
20
4.672624
11
4.268141
21
4.672624
0
LINE
8
BLACK
10
5.152642
20
4.524458
11
4.268406
21
4.672624
0
LINE
8
BLACK
10
5.155817
20
4.521812
11
5.152642
21
4.524458
0
LINE
8
BLACK
10
7.051819
20
4.521812
11
5.155817
21
4.521812
0
LINE
8
BLACK
10
7.117171
20
4.519166
11
7.051819
21
4.521812
0
LINE
8
BLACK
10
7.117171
20
4.519166
11
7.117171
21
4.519166
0
LINE
8
BLACK
10
7.243377
20
4.484771
11
7.117171
21
4.519166
0
LINE
8
BLACK
10
7.356354
20
4.418625
11
7.243377
21
4.484771
0
LINE
8
BLACK
10
7.356354
20
4.418625
11
7.356354
21
4.418625
0
LINE
8
BLACK
10
7.405567
20
4.376292
11
7.356354
21
4.418625
0
LINE
8
BLACK
10
8.663923
20
3.116876
11
7.405567
21
4.376292
0
LINE
8
BLACK
10
16.083095
20
3.116876
11
8.663923
21
3.116876
0
LINE
8
BLACK
10
16.086270
20
3.119522
11
16.083095
21
3.116876
0
LINE
8
BLACK
10
17.635933
20
3.582543
11
16.086270
21
3.119522
0
LINE
8
BLACK
10
17.735945
20
3.635459
11
17.635933
21
3.582543
0
LINE
8
BLACK
10
17.899987
20
3.688376
11
17.735945
21
3.635459
0
LINE
8
BLACK
10
18.070378
20
3.714834
11
17.899987
21
3.688376
0
LINE
8
BLACK
10
18.243151
20
3.714834
11
18.070378
21
3.714834
0
LINE
8
BLACK
10
18.413542
20
3.688376
11
18.243151
21
3.714834
0
LINE
8
BLACK
10
18.577848
20
3.635459
11
18.413542
21
3.688376
0
LINE
8
BLACK
10
18.731571
20
3.556084
11
18.577848
21
3.635459
0
LINE
8
BLACK
10
18.871271
20
3.455543
11
18.731571
21
3.556084
0
LINE
8
BLACK
10
18.993244
20
3.333834
11
18.871271
21
3.455543
0
LINE
8
BLACK
10
19.094579
20
3.193606
11
18.993244
21
3.333834
0
LINE
8
BLACK
10
19.173160
20
3.040147
11
19.094579
21
3.193606
0
LINE
8
BLACK
10
19.226341
20
2.876106
11
19.173160
21
3.040147
0
LINE
8
BLACK
10
19.253329
20
2.704127
11
19.226341
21
2.876106
0
LINE
8
BLACK
10
19.253329
20
2.532148
11
19.253329
21
2.704127
0
LINE
8
BLACK
10
19.226341
20
2.360169
11
19.253329
21
2.532148
0
LINE
8
BLACK
10
19.173160
20
2.196128
11
19.226341
21
2.360169
0
LINE
8
BLACK
10
19.094579
20
2.042669
11
19.173160
21
2.196128
0
LINE
8
BLACK
10
18.993244
20
1.905086
11
19.094579
21
2.042669
0
LINE
8
BLACK
10
18.871271
20
1.780732
11
18.993244
21
1.905086
0
LINE
8
BLACK
10
18.731571
20
1.680191
11
18.871271
21
1.780732
0
LINE
8
BLACK
10
18.577848
20
1.600816
11
18.731571
21
1.680191
0
LINE
8
BLACK
10
18.413542
20
1.547899
11
18.577848
21
1.600816
0
LINE
8
BLACK
10
18.243151
20
1.521441
11
18.413542
21
1.547899
0
LINE
8
BLACK
10
18.070378
20
1.521441
11
18.243151
21
1.521441
0
LINE
8
BLACK
10
17.899987
20
1.547899
11
18.070378
21
1.521441
0
LINE
8
BLACK
10
17.735945
20
1.600816
11
17.899987
21
1.547899
0
LINE
8
BLACK
10
17.635933
20
1.653732
11
17.735945
21
1.600816
0
LINE
8
BLACK
10
16.086270
20
2.116753
11
17.635933
21
1.653732
0
LINE
8
BLACK
10
16.082037
20
2.119399
11
16.086270
21
2.116753
0
LINE
8
BLACK
10
8.456755
20
2.119399
11
16.082037
21
2.119399
0
LINE
8
BLACK
10
8.391667
20
2.122044
11
8.456755
21
2.119399
0
LINE
8
BLACK
10
8.391403
20
2.122044
11
8.391667
21
2.122044
0
LINE
8
BLACK
10
8.265461
20
2.156440
11
8.391403
21
2.122044
0
LINE
8
BLACK
10
8.152484
20
2.222586
11
8.265461
21
2.156440
0
LINE
8
BLACK
10
8.152484
20
2.222586
11
8.152484
21
2.222586
0
LINE
8
BLACK
10
8.103272
20
2.264919
11
8.152484
21
2.222586
0
LINE
8
BLACK
10
6.844915
20
3.524334
11
8.103272
21
2.264919
0
LINE
8
BLACK
10
5.155288
20
3.524334
11
6.844915
21
3.524334
0
LINE
8
BLACK
10
5.152642
20
3.521688
11
5.155288
21
3.524334
0
LINE
8
BLACK
10
4.268406
20
3.373522
11
5.152642
21
3.521688
0
LINE
8
BLACK
10
4.267083
20
3.373522
11
4.268406
21
3.373522
0
LINE
8
BLACK
10
4.262321
20
3.373522
11
4.267083
21
3.373522
0
LINE
8
BLACK
10
3.012430
20
3.373522
11
4.262321
21
3.373522
0
LINE
8
BLACK
10
2.916651
20
3.392043
11
3.012430
21
3.373522
0
LINE
8
BLACK
10
2.835689
20
3.447605
11
2.916651
21
3.392043
0
LINE
8
BLACK
10
2.781450
20
3.526980
11
2.835689
21
3.447605
0
LINE
8
BLACK
10
2.762400
20
3.622230
11
2.781450
21
3.526980
0
LINE
8
BLACK
10
2.762400
20
4.423916
11
2.762400
21
3.622230
0
LINE
8
BLACK
10
2.781450
20
4.519166
11
2.762400
21
4.423916
0
LINE
8
BLACK
10
2.835689
20
4.598541
11
2.781450
21
4.519166
0
LINE
8
BLACK
10
2.916651
20
4.654104
11
2.835689
21
4.598541
0
LINE
8
BLACK
10
18.156897
20
15.181861
11
2.156769
21
15.181861
0
LINE
8
BLACK
10
18.528107
20
15.165986
11
18.156897
21
15.181861
0
LINE
8
BLACK
10
18.896406
20
15.115715
11
18.528107
21
15.165986
0
LINE
8
BLACK
10
19.258356
20
15.028403
11
18.896406
21
15.115715
0
LINE
8
BLACK
10
19.610780
20
14.911987
11
19.258356
21
15.028403
0
LINE
8
BLACK
10
19.950770
20
14.761174
11
19.610780
21
14.911987
0
LINE
8
BLACK
10
20.275677
20
14.581258
11
19.950770
21
14.761174
0
LINE
8
BLACK
10
20.582329
20
14.369591
11
20.275677
21
14.581258
0
LINE
8
BLACK
10
20.868343
20
14.131467
11
20.582329
21
14.369591
0
LINE
8
BLACK
10
21.131339
20
13.869530
11
20.868343
21
14.131467
0
LINE
8
BLACK
10
21.368670
20
13.583780
11
21.131339
21
13.869530
0
LINE
8
BLACK
10
21.579013
20
13.276864
11
21.368670
21
13.583780
0
LINE
8
BLACK
10
21.759724
20
12.951427
11
21.579013
21
13.276864
0
LINE
8
BLACK
10
21.910007
20
12.612760
11
21.759724
21
12.951427
0
LINE
8
BLACK
10
22.028011
20
12.260865
11
21.910007
21
12.612760
0
LINE
8
BLACK
10
22.113206
20
11.898386
11
22.028011
21
12.260865
0
LINE
8
BLACK
10
22.164536
20
11.530616
11
22.113206
21
11.898386
0
LINE
8
BLACK
10
22.181733
20
11.157554
11
22.164536
21
11.530616
0
LINE
8
BLACK
10
22.181733
20
2.159086
11
22.181733
21
11.157554
0
LINE
8
BLACK
10
22.164536
20
1.894503
11
22.181733
21
2.159086
0
LINE
8
BLACK
10
22.112677
20
1.635212
11
22.164536
21
1.894503
0
LINE
8
BLACK
10
22.027746
20
1.383858
11
22.112677
21
1.635212
0
LINE
8
BLACK
10
21.910536
20
1.145733
11
22.027746
21
1.383858
0
LINE
8
BLACK
10
21.763428
20
0.926129
11
21.910536
21
1.145733
0
LINE
8
BLACK
10
21.588538
20
0.725046
11
21.763428
21
0.926129
0
LINE
8
BLACK
10
21.389572
20
0.550421
11
21.588538
21
0.725046
0
LINE
8
BLACK
10
21.169174
20
0.404901
11
21.389572
21
0.550421
0
LINE
8
BLACK
10
20.931579
20
0.288484
11
21.169174
21
0.404901
0
LINE
8
BLACK
10
20.680754
20
0.201172
11
20.931579
21
0.288484
0
LINE
8
BLACK
10
20.421198
20
0.150901
11
20.680754
21
0.201172
0
LINE
8
BLACK
10
20.156880
20
0.132380
11
20.421198
21
0.150901
0
LINE
8
BLACK
10
2.156769
20
0.132380
11
20.156880
21
0.132380
0
LINE
8
BLACK
10
1.892451
20
0.150901
11
2.156769
21
0.132380
0
LINE
8
BLACK
10
1.632630
20
0.201172
11
1.892451
21
0.150901
0
LINE
8
BLACK
10
1.381805
20
0.288484
11
1.632630
21
0.201172
0
LINE
8
BLACK
10
1.144210
20
0.404901
11
1.381805
21
0.288484
0
LINE
8
BLACK
10
0.924077
20
0.550421
11
1.144210
21
0.404901
0
LINE
8
BLACK
10
0.724846
20
0.725046
11
0.924077
21
0.550421
0
LINE
8
BLACK
10
0.550221
20
0.926129
11
0.724846
21
0.725046
0
LINE
8
BLACK
10
0.403113
20
1.145733
11
0.550221
21
0.926129
0
LINE
8
BLACK
10
0.285903
20
1.383858
11
0.403113
21
1.145733
0
LINE
8
BLACK
10
0.200707
20
1.635212
11
0.285903
21
1.383858
0
LINE
8
BLACK
10
0.149113
20
1.894503
11
0.200707
21
1.635212
0
LINE
8
BLACK
10
0.131915
20
2.159086
11
0.149113
21
1.894503
0
LINE
8
BLACK
10
0.131915
20
13.157801
11
0.131915
21
2.159086
0
LINE
8
BLACK
10
0.149113
20
13.422384
11
0.131915
21
13.157801
0
LINE
8
BLACK
10
0.200707
20
13.681676
11
0.149113
21
13.422384
0
LINE
8
BLACK
10
0.285903
20
13.933029
11
0.200707
21
13.681676
0
LINE
8
BLACK
10
0.403113
20
14.171154
11
0.285903
21
13.933029
0
LINE
8
BLACK
10
0.550221
20
14.390758
11
0.403113
21
14.171154
0
LINE
8
BLACK
10
0.724846
20
14.589195
11
0.550221
21
14.390758
0
LINE
8
BLACK
10
0.924077
20
14.763820
11
0.724846
21
14.589195
0
LINE
8
BLACK
10
1.144210
20
14.911987
11
0.924077
21
14.763820
0
LINE
8
BLACK
10
1.381805
20
15.028403
11
1.144210
21
14.911987
0
LINE
8
BLACK
10
1.632630
20
15.113070
11
1.381805
21
15.028403
0
LINE
8
BLACK
10
1.892451
20
15.165986
11
1.632630
21
15.113070
0
LINE
8
BLACK
10
2.156769
20
15.181861
11
1.892451
21
15.165986
 0 
ENDSEC
 0 
EOF